<svg width="156" height="156" viewBox="0 0 156 156" fill="none" xmlns="http://www.w3.org/2000/svg">
<circle cx="78" cy="78" r="78" fill="#FF5A26"/>
<path d="M87.6108 14.9552C87.7066 14.6026 87.8661 14.3141 88.0576 14.0256C88.281 13.7371 88.5363 13.5127 88.8235 13.3524C89.1426 13.1922 89.4617 13.0639 89.8766 13.0319C90.2596 12.9678 90.7063 12.9998 91.1531 13.096C91.5999 13.1922 91.9828 13.3524 92.302 13.5448C92.6211 13.7371 92.9083 13.9936 93.0998 14.25C93.2912 14.5065 93.4508 14.795 93.5146 15.1155C93.5785 15.4361 93.6104 15.7246 93.5465 16.0131C93.4827 16.3016 93.3551 16.558 93.1955 16.7504C93.0359 16.9427 92.8764 17.103 92.6849 17.1992C92.4934 17.3274 92.27 17.4235 92.0467 17.4877C92.27 17.6479 92.4296 17.8403 92.5892 18.0647C92.7168 18.257 92.8126 18.5135 92.9083 18.802C93.004 19.0905 92.9721 19.4431 92.9083 19.7957C92.8445 20.1162 92.7168 20.4047 92.5253 20.6612C92.3339 20.9176 92.0786 21.11 91.7594 21.2703C91.4403 21.4305 91.0893 21.5267 90.7063 21.5908C90.2915 21.6549 89.8766 21.6229 89.3979 21.5267C88.9192 21.4305 88.4725 21.2703 88.1214 21.0459C87.7704 20.8215 87.4832 20.565 87.2598 20.3086C87.0364 20.0521 86.8768 19.6995 86.813 19.3469C86.7173 18.9943 86.7173 18.6417 86.7492 18.257L88.6639 18.5455C88.6639 18.834 88.7597 19.0905 88.9511 19.3148C89.1107 19.5713 89.366 19.7316 89.717 19.7957C90.0681 19.8598 90.3872 19.8598 90.6106 19.6995C90.834 19.5713 90.9616 19.379 91.0255 19.0905C91.0893 18.8661 91.0255 18.6417 90.8659 18.4173C90.7063 18.1929 90.451 18.0647 90.1 17.9685L89.2384 17.7762L89.5894 16.2054L90.3872 16.3657C90.7382 16.4298 91.0255 16.4298 91.2488 16.3016C91.4403 16.1734 91.568 16.0131 91.6318 15.7887C91.6956 15.5643 91.6318 15.3399 91.4722 15.1155C91.3127 14.8911 91.0574 14.8591 90.7382 14.795C90.451 14.7309 90.1957 14.7629 89.9723 14.8911C89.749 15.0194 89.5894 15.2117 89.4937 15.4681L87.6108 14.9552Z" fill="white"/>
<path d="M101.652 23.8027L100.472 25.0209L98.6526 24.1553L105.035 17.8403L106.854 18.7058L105.897 27.6494L104.078 26.7839L104.301 25.085L101.652 23.8027ZM104.556 23.3539L104.939 20.4048L102.865 22.5526L104.556 23.3539Z" fill="white"/>
<path d="M122.619 29.6048L117.194 36.1122L115.694 34.862L119.906 29.7972L117.385 27.6815L113.173 32.7463L111.673 31.4961L117.098 24.9888L122.619 29.6048Z" fill="white"/>
<path d="M131.203 39.5422C131.458 39.8948 131.65 40.2794 131.746 40.6641C131.841 41.0488 131.873 41.4335 131.809 41.7861C131.746 42.1387 131.618 42.5234 131.427 42.8439C131.235 43.1645 130.98 43.453 130.661 43.7094C130.342 43.9338 129.99 44.0941 129.608 44.1903C129.225 44.2864 128.874 44.2864 128.491 44.2223C128.108 44.1582 127.757 44.03 127.437 43.8056C127.118 43.5812 126.799 43.3248 126.544 42.9721L125.746 41.8822L123.576 43.485L122.427 41.9143L129.256 36.9136L131.203 39.5422ZM128.076 41.8502C128.267 42.1066 128.491 42.2349 128.778 42.299C129.065 42.3631 129.32 42.299 129.544 42.1387C129.767 41.9784 129.895 41.754 129.927 41.4655C129.959 41.177 129.895 40.9206 129.735 40.6641L128.937 39.5742L127.31 40.7603L128.076 41.8502Z" fill="white"/>
<path d="M136.66 59.2568C136.086 59.4812 135.543 59.5774 134.969 59.5774C134.394 59.5774 133.884 59.4492 133.373 59.2568C132.863 59.0645 132.416 58.7439 132.033 58.3592C131.65 57.9746 131.331 57.4937 131.139 56.9808C130.916 56.4359 130.82 55.8909 130.852 55.346C130.852 54.801 130.98 54.2561 131.203 53.7752C131.427 53.2944 131.746 52.8456 132.129 52.4289C132.544 52.0442 133.022 51.7237 133.565 51.4993C134.107 51.2749 134.682 51.1787 135.256 51.1787C135.83 51.1787 136.341 51.3069 136.852 51.4993C137.362 51.6916 137.809 52.0122 138.192 52.3968C138.575 52.7815 138.894 53.2623 139.086 53.7752C139.309 54.3202 139.405 54.8651 139.373 55.4101C139.341 55.9551 139.245 56.5 139.022 56.9808C138.798 57.4617 138.479 57.9105 138.096 58.3272C137.681 58.7119 137.203 59.0324 136.66 59.2568ZM135.926 57.4296C136.245 57.3014 136.533 57.1091 136.756 56.9167C136.979 56.6923 137.171 56.4679 137.298 56.1794C137.426 55.8909 137.49 55.6345 137.49 55.346C137.49 55.0575 137.458 54.769 137.33 54.4805C137.203 54.192 137.043 53.9676 136.852 53.7432C136.628 53.5509 136.405 53.3906 136.118 53.2623C135.83 53.1341 135.543 53.1021 135.224 53.1021C134.905 53.1021 134.586 53.1662 134.267 53.2944C133.948 53.4226 133.66 53.615 133.437 53.8073C133.214 54.0317 133.022 54.2561 132.895 54.5446C132.767 54.801 132.703 55.0895 132.703 55.378C132.703 55.6665 132.735 55.955 132.863 56.2436C132.99 56.5321 133.15 56.7564 133.341 56.9808C133.565 57.1732 133.788 57.3335 134.075 57.4617C134.363 57.5899 134.65 57.622 134.969 57.622C135.288 57.622 135.607 57.5578 135.926 57.4296Z" fill="white"/>
<path d="M134.618 67.9438L143.011 67.1104L143.202 69.0658L136.66 69.7069L136.884 71.8546L143.426 71.2135L143.617 73.1689L137.075 73.81L137.298 75.9578L143.84 75.3167L144.032 77.2721L135.639 78.1055L134.618 67.9438Z" fill="white"/>
<path d="M143.362 87.2736L142.341 93.236L140.49 92.9154L141.192 88.8764L139.883 88.652L139.245 92.3704L137.394 92.0499L138.032 88.3314L136.564 88.075L135.862 92.2422L134.011 91.9217L135.065 85.8311L143.362 87.2736Z" fill="white"/>
<path d="M136.756 109.135L129.033 105.705L129.831 103.91L132.894 105.257L134.203 102.308L131.139 100.961L131.937 99.166L139.66 102.596L138.862 104.391L135.926 103.077L134.618 106.026L137.554 107.34L136.756 109.135Z" fill="white"/>
<path d="M127.214 123.272L120.608 118.015L121.821 116.476L124.438 118.56L126.448 116.028L123.831 113.944L125.044 112.405L131.65 117.662L130.437 119.201L127.916 117.182L125.906 119.714L128.427 121.734L127.214 123.272Z" fill="white"/>
<path d="M115.311 133.915L110.141 127.183L111.673 125.997L113.396 128.241L114.194 127.632L113.747 124.394L115.438 123.08L115.917 126.895C116.268 126.831 116.587 126.799 116.843 126.863C117.13 126.895 117.417 126.991 117.736 127.151C118.055 127.311 118.342 127.568 118.662 127.953C118.885 128.241 119.045 128.562 119.14 128.914C119.236 129.267 119.236 129.619 119.172 129.972C119.108 130.325 118.981 130.677 118.789 130.998C118.598 131.318 118.311 131.639 117.96 131.895L115.311 133.915ZM114.577 129.748L115.726 131.254L116.843 130.389C117.098 130.196 117.257 129.94 117.321 129.684C117.385 129.427 117.289 129.203 117.13 128.978C116.97 128.754 116.747 128.658 116.492 128.626C116.236 128.594 115.981 128.69 115.694 128.882L114.577 129.748Z" fill="white"/>
<path d="M89.9405 144.814L87.8662 136.576L89.749 136.095L90.5788 139.364L93.7062 138.563L92.8765 135.293L94.7593 134.812L96.8336 143.051L94.9508 143.532L94.153 140.39L91.0255 141.192L91.8233 144.333L89.9405 144.814Z" fill="white"/>
<path d="M78.484 139.108L78.9946 137.473L81.0051 137.441L78.1329 145.968L76.1225 146L72.9631 137.569L74.9736 137.537L75.548 139.14L78.484 139.108ZM76.1225 140.807L77.1117 143.628L78.0053 140.775L76.1225 140.807Z" fill="white"/>
<path d="M48.0714 134.812C48.3267 134.267 48.6459 133.786 49.0607 133.402C49.4756 133.017 49.9224 132.729 50.433 132.504C50.9436 132.28 51.4542 132.184 51.9967 132.184C52.5392 132.184 53.0817 132.312 53.5923 132.536C54.1029 132.761 54.5496 133.081 54.9326 133.498C55.3155 133.915 55.6028 134.363 55.7623 134.876C55.9538 135.389 56.0495 135.934 56.0495 136.479C56.0495 137.056 55.9219 137.601 55.6666 138.178C55.4113 138.723 55.0922 139.204 54.6773 139.589C54.2624 139.973 53.8157 140.294 53.3051 140.486C52.7945 140.678 52.2839 140.807 51.7414 140.807C51.1989 140.807 50.6563 140.678 50.1457 140.454C49.6351 140.23 49.1884 139.909 48.8054 139.492C48.4225 139.076 48.1353 138.627 47.9757 138.114C47.7842 137.601 47.6885 137.056 47.7204 136.511C47.6885 135.934 47.8161 135.357 48.0714 134.812ZM49.8585 135.614C49.7309 135.934 49.6351 136.255 49.6351 136.575C49.6351 136.896 49.6671 137.184 49.7628 137.473C49.8585 137.761 50.0181 137.986 50.2096 138.21C50.401 138.435 50.6563 138.595 50.9116 138.723C51.1988 138.851 51.4861 138.915 51.7733 138.915C52.0605 138.915 52.3477 138.851 52.6349 138.723C52.8902 138.595 53.1455 138.435 53.3689 138.21C53.5923 137.986 53.7838 137.697 53.9114 137.377C54.0391 137.056 54.1348 136.736 54.1348 136.415C54.1348 136.094 54.1029 135.806 54.0071 135.517C53.9114 135.229 53.7518 135.005 53.5604 134.78C53.3689 134.556 53.1136 134.395 52.8583 134.267C52.5711 134.139 52.2839 134.075 51.9967 134.075C51.7095 134.075 51.4222 134.139 51.135 134.267C50.8478 134.395 50.6244 134.556 50.401 134.78C50.1777 135.005 49.9862 135.293 49.8585 135.614Z" fill="white"/>
<path d="M38.3382 133.722L33.7109 130.164L34.8598 128.658L37.9553 131.03L39.0084 129.651L36.5192 127.728L37.6681 126.221L40.1572 128.145L41.9443 125.805L43.4761 126.991L38.3382 133.722Z" fill="white"/>
<path d="M27.105 123.657L23.4032 119.137L24.8393 117.951L27.3284 120.964L28.6687 119.842L26.6583 117.406L28.0943 116.22L30.1048 118.656L32.3706 116.765L33.6152 118.271L27.105 123.657Z" fill="white"/>
<path d="M18.361 111.316L17.4994 109.584L23.3713 106.603L21.648 103.173L23.3074 102.34L25.8923 107.501L18.361 111.316Z" fill="white"/>
<path d="M20.4034 93.6206L20.914 95.5119L12.7763 97.7879L12.2657 95.8966L20.4034 93.6206Z" fill="white"/>
<path d="M10 79.2595L18.4249 78.7466L18.5206 80.5097L13.7657 84.2281L18.7121 83.9396L18.8397 85.895L10.4149 86.4079L10.3191 84.6128L15.0741 80.8943L10.1276 81.1828L10 79.2595Z" fill="white"/>
<path d="M10.6702 69.3862L11.7871 63.4238L13.638 63.7764L12.8721 67.8155L14.1805 68.0719L14.8507 64.3534L16.7016 64.7061L16.0314 68.4245L17.4675 68.681L18.2334 64.5137L20.0843 64.8663L18.9674 70.957L10.6702 69.3862Z" fill="white"/>
<path d="M29.0517 45.1518L24.4244 45.3761L27.5518 47.4598L26.4987 49.0946L19.4142 44.4465L20.4673 42.8117L23.499 44.7991L21.8714 40.6639L23.0841 38.8047L24.9031 43.581L30.2325 43.2925L29.0517 45.1518Z" fill="white"/>
<path d="M33.7747 27.3931L35.9766 33.644C36.1362 34.1569 36.2958 34.5736 36.3596 34.9583C36.4553 35.3429 36.4553 35.6635 36.4553 35.952C36.4234 36.2405 36.3596 36.4969 36.2319 36.7534C36.1043 36.9778 35.9128 37.2342 35.6894 37.4586C35.5299 37.6189 35.3703 37.7471 35.2107 37.8433C35.115 37.9074 35.0512 37.9395 34.9874 37.9715L33.8066 36.6893C33.8704 36.6572 33.9023 36.6252 33.9662 36.5931C33.9981 36.5611 34.0619 36.529 34.1257 36.4649C34.1896 36.4328 34.2534 36.3687 34.3172 36.3046C34.4768 36.1764 34.5725 36.0161 34.6044 35.8558C34.6682 35.6955 34.6682 35.5673 34.7002 35.4391C34.7002 35.2788 34.6682 35.1185 34.6363 34.9903L28.5092 32.49L29.9771 31.1116L33.7747 32.6823L32.4025 28.7715L33.7747 27.3931Z" fill="white"/>
<path d="M43.827 20.4686C44.21 20.2442 44.5929 20.116 44.9759 20.0519C45.3588 19.9878 45.7418 20.0199 46.0928 20.116C46.4438 20.2122 46.7949 20.3725 47.0821 20.5969C47.3693 20.8213 47.6565 21.1098 47.848 21.4624C48.0394 21.815 48.1671 22.1676 48.199 22.5523C48.2309 22.9369 48.199 23.2896 48.1033 23.6742C48.0075 24.0268 47.8161 24.3795 47.5927 24.7C47.3693 25.0206 47.0502 25.277 46.6672 25.5014L45.5184 26.1746L46.8587 28.5147L45.1673 29.4764L40.9868 22.1035L43.827 20.4686ZM45.7737 23.8345C46.029 23.6742 46.2204 23.4819 46.2843 23.1934C46.3481 22.9049 46.3481 22.6484 46.1885 22.424C46.0609 22.1997 45.8375 22.0394 45.5822 21.9753C45.295 21.9112 45.0397 21.9432 44.7844 22.1035L43.6355 22.7767L44.6567 24.5397L45.7737 23.8345Z" fill="white"/>
<path d="M60.5492 20.5971C61.0597 20.4368 61.4427 20.2124 61.6661 19.8919C61.8895 19.5713 62.0171 19.2187 62.0171 18.8661L63.9957 18.4494C64.0276 18.8661 63.9638 19.2828 63.8361 19.6995C63.7085 20.1163 63.5489 20.5009 63.2936 20.8536C63.0383 21.2062 62.7511 21.5267 62.3682 21.8152C61.9852 22.1037 61.5703 22.2961 61.0598 22.4563C60.5172 22.6166 59.9747 22.6487 59.4322 22.5846C58.8897 22.5205 58.3791 22.3281 57.9004 22.0717C57.4217 21.8152 57.0069 21.4306 56.6558 21.0138C56.3048 20.565 56.0495 20.0522 55.89 19.4751C55.7304 18.8981 55.6666 18.3211 55.7304 17.7441C55.7942 17.1671 55.9538 16.6542 56.2091 16.1734C56.4644 15.6925 56.8154 15.2758 57.2303 14.9232C57.6451 14.5706 58.1557 14.3141 58.6982 14.1539C59.1769 14.0256 59.6556 13.9615 60.1024 14.0256C60.5492 14.0577 60.964 14.1859 61.3789 14.3462C61.7618 14.5065 62.1129 14.7629 62.432 15.0514C62.7511 15.3399 63.0064 15.6605 63.1979 16.0452L61.3151 16.7183C61.2193 16.5581 61.0917 16.4298 60.964 16.3016C60.8364 16.1734 60.6768 16.0772 60.4853 16.0131C60.2939 15.949 60.1024 15.9169 59.9109 15.8849C59.6875 15.8849 59.4641 15.8849 59.2407 15.9811C58.9535 16.0772 58.6982 16.2054 58.4748 16.3978C58.2515 16.5901 58.06 16.8145 57.9323 17.071C57.8047 17.3274 57.709 17.6159 57.677 17.9365C57.6451 18.257 57.677 18.5776 57.7728 18.9302C57.8685 19.2508 58.0281 19.5713 58.2196 19.8278C58.411 20.0842 58.6344 20.2765 58.8897 20.4368C59.145 20.5971 59.4003 20.6933 59.7194 20.7253C59.9747 20.6933 60.2619 20.6612 60.5492 20.5971Z" fill="white"/>
<path d="M87 77.5L72.75 85.7272L72.75 69.2728L87 77.5Z" fill="white"/>
</svg>
