<svg width="66" height="125" viewBox="0 0 66 125" fill="none" xmlns="http://www.w3.org/2000/svg">
<path d="M58.4917 123.743C60.8437 122.898 62.5899 121.495 63.7141 120.262C64.2762 119.656 64.6909 119.11 64.9637 118.718C65.2366 118.325 65.373 118.084 65.373 118.084C65.373 118.084 64.2762 117.948 62.65 118.068C61.8369 118.112 60.8983 118.166 59.8833 118.357C59.3758 118.461 58.8519 118.537 58.3116 118.663C57.7714 118.788 57.2202 118.947 56.6636 119.143C56.3853 119.241 56.1125 119.34 55.8451 119.438C55.5777 119.536 55.3157 119.645 55.0593 119.754C54.5463 119.978 54.0497 120.224 53.5804 120.475C53.3457 120.6 53.1166 120.731 52.8928 120.857C52.6745 120.977 52.4617 121.102 52.2543 121.222C51.8396 121.468 51.4576 121.713 51.1084 121.954C50.4044 122.428 49.8369 122.865 49.4494 123.181C49.0565 123.503 48.8492 123.689 48.8492 123.689C48.8492 123.689 48.9201 123.716 49.062 123.76C49.2039 123.803 49.4112 123.858 49.6732 123.924C50.197 124.054 50.9556 124.218 51.8614 124.344C52.3144 124.415 52.811 124.431 53.3348 124.453C53.8587 124.469 54.4099 124.464 54.9774 124.431C55.5449 124.409 56.1288 124.311 56.7182 124.196C57.313 124.093 57.9024 123.94 58.4917 123.743ZM48.7018 108.884C49.0456 109.282 49.3621 109.703 49.6513 110.134C49.946 110.559 50.2243 110.969 50.4754 111.389C50.9829 112.224 51.3976 113.069 51.7359 113.795C52.0743 114.51 52.3307 115.138 52.4999 115.591C52.6691 116.038 52.7509 116.306 52.7509 116.306C52.7509 116.306 52.4781 116.267 52.0142 116.169C51.7796 116.12 51.5013 116.049 51.1848 115.962C50.8683 115.874 50.519 115.738 50.1425 115.591C49.7659 115.438 49.3676 115.269 48.9528 115.067C48.7455 114.963 48.5327 114.865 48.3253 114.739C48.1179 114.614 47.9051 114.483 47.6977 114.341C46.8574 113.773 46.0061 113.113 45.2912 112.229C44.931 111.798 44.6091 111.351 44.3307 110.909C44.1889 110.69 44.0634 110.461 43.9488 110.226C43.8342 109.992 43.725 109.763 43.6268 109.533C43.2339 108.617 42.972 107.754 42.8137 106.99C42.6609 106.21 42.5954 105.555 42.5627 105.091C42.5354 104.627 42.5408 104.36 42.5408 104.36C42.5408 104.36 42.7646 104.447 43.1357 104.627C43.3212 104.72 43.5395 104.835 43.785 104.977C44.0361 105.113 44.3198 105.26 44.62 105.446C45.2202 105.801 45.886 106.303 46.5954 106.843C46.9447 107.121 47.2994 107.432 47.6486 107.782L47.9106 108.049L48.178 108.311C48.358 108.496 48.5327 108.688 48.7018 108.884ZM44.7182 120.638C45.3348 120.567 45.9242 120.458 46.4808 120.316C47.0374 120.175 47.5722 119.973 48.0634 119.776C49.0511 119.361 49.886 118.898 50.5681 118.434C51.2557 117.959 51.7796 117.511 52.1288 117.184C52.4835 116.857 52.6691 116.649 52.6691 116.649C52.6691 116.649 52.4071 116.562 51.9433 116.447C51.7086 116.387 51.4303 116.327 51.1029 116.262C50.7809 116.196 50.4153 116.109 50.017 116.038C49.6186 115.967 49.182 115.896 48.7182 115.847C48.4835 115.825 48.2434 115.803 48.0033 115.776C47.7578 115.749 47.5122 115.722 47.2557 115.705C46.2352 115.623 45.1002 115.662 43.9433 115.749C43.3594 115.803 42.7864 115.891 42.2353 116.005C41.9569 116.065 41.6841 116.12 41.4222 116.175C41.1548 116.235 40.8983 116.295 40.6418 116.36C39.6213 116.627 38.6882 116.96 37.8969 117.266C37.1166 117.561 36.4726 117.85 36.0252 118.068C35.5777 118.281 35.3267 118.428 35.3267 118.428C35.3267 118.428 35.5941 118.597 36.0743 118.854C36.3144 118.985 36.6091 119.132 36.9474 119.29C37.2912 119.443 37.6841 119.596 38.1207 119.749C38.9883 120.049 40.0033 120.382 41.1384 120.535C41.7005 120.622 42.2898 120.682 42.8846 120.715C43.032 120.72 43.1848 120.726 43.3321 120.731C43.4849 120.726 43.6377 120.726 43.7905 120.715C44.1016 120.698 44.4126 120.671 44.7182 120.638ZM38.4208 103.973C38.6554 104.458 38.8901 104.911 39.0866 105.391C39.283 105.866 39.4576 106.346 39.605 106.816C39.6814 107.05 39.7523 107.29 39.8178 107.514C39.8887 107.738 39.9488 107.962 40.0088 108.18C40.1288 108.617 40.2271 109.037 40.3144 109.43C40.4836 110.215 40.5872 110.892 40.6527 111.372C40.68 111.612 40.7073 111.798 40.7182 111.929C40.7291 112.06 40.7346 112.125 40.7346 112.125C40.7346 112.125 40.6691 112.104 40.549 112.054C40.429 112.005 40.2598 111.924 40.047 111.82C39.6213 111.607 39.0265 111.285 38.3499 110.843C38.0061 110.63 37.6677 110.346 37.313 110.052C36.9583 109.757 36.5981 109.424 36.2434 109.069C36.1561 108.982 36.0688 108.889 35.9761 108.797C35.8887 108.698 35.8069 108.6 35.725 108.497C35.5559 108.295 35.3921 108.082 35.2339 107.863C34.9174 107.427 34.6173 106.963 34.3499 106.477C33.8369 105.468 33.5149 104.431 33.313 103.476C33.1275 102.505 33.0784 101.572 33.0893 100.797C33.1002 100.011 33.1602 99.3724 33.2421 98.9085C33.3185 98.4447 33.384 98.1827 33.384 98.1827C33.384 98.1827 33.4331 98.2155 33.5204 98.2864C33.6132 98.3519 33.7332 98.461 33.8969 98.5866C34.2243 98.8376 34.6773 99.2141 35.1739 99.7107C36.1889 100.693 37.4385 102.09 38.4208 103.973ZM31.9651 114.537C32.5709 114.625 33.1875 114.619 33.766 114.603C34.3444 114.581 34.8956 114.521 35.4194 114.445C35.6814 114.401 35.9324 114.357 36.178 114.303C36.4235 114.243 36.6636 114.177 36.8983 114.112C37.3567 113.975 37.7823 113.828 38.1698 113.681C38.9338 113.381 39.5395 113.069 39.9542 112.835C40.1616 112.72 40.3198 112.617 40.429 112.546C40.5381 112.475 40.5927 112.436 40.5927 112.436C40.5927 112.436 40.3526 112.3 39.9324 112.071C39.5122 111.842 38.901 111.542 38.1425 111.241C37.7605 111.1 37.3621 110.914 36.9256 110.756C36.489 110.592 36.0197 110.439 35.5231 110.297C35.3976 110.265 35.2721 110.232 35.1466 110.194C35.0211 110.155 34.8956 110.123 34.7646 110.084C34.5081 110.014 34.2462 109.948 33.9733 109.888C33.4331 109.768 32.8655 109.67 32.2762 109.604C31.1193 109.446 29.9897 109.413 28.9256 109.462C27.8724 109.501 26.9065 109.588 26.0661 109.713C25.2312 109.833 24.5272 109.992 24.047 110.095C23.5668 110.205 23.2939 110.286 23.2939 110.286C23.2939 110.286 23.3485 110.341 23.4522 110.445C23.5613 110.543 23.7087 110.701 23.9215 110.87C24.3417 111.214 24.9583 111.689 25.7223 112.191C25.9133 112.316 26.1152 112.447 26.328 112.573C26.5409 112.693 26.7701 112.813 27.0047 112.933C27.474 113.173 27.9706 113.408 28.4999 113.626C28.7619 113.735 29.0293 113.844 29.3076 113.937C29.5913 114.024 29.8751 114.106 30.1698 114.183C30.7482 114.341 31.354 114.461 31.9651 114.537ZM29.4549 96.8676C29.5968 97.3751 29.7114 97.8881 29.7932 98.401C29.8369 98.6575 29.8696 98.914 29.9024 99.165C29.9351 99.416 29.9679 99.6561 29.9952 99.9017C30.0988 100.873 30.1261 101.806 30.1152 102.619C30.1043 103.432 30.077 104.093 30.0388 104.573C30.0006 105.048 29.957 105.326 29.957 105.326C29.957 105.326 29.7223 105.173 29.3458 104.884C28.9583 104.6 28.4617 104.136 27.9051 103.547C27.6268 103.252 27.3376 102.919 27.0484 102.565C26.7646 102.199 26.4972 101.784 26.2298 101.353C25.9679 100.917 25.7168 100.458 25.4931 99.9726C25.2857 99.4706 25.1002 98.9467 24.9529 98.401C24.811 97.8553 24.6909 97.3314 24.6473 96.7912C24.5982 96.2564 24.5818 95.738 24.5927 95.2414C24.6036 94.7448 24.6418 94.2755 24.7018 93.8335C24.7564 93.3915 24.8546 92.9658 24.942 92.5838C25.1275 91.8144 25.3403 91.1977 25.5095 90.7666C25.6786 90.3355 25.7987 90.0954 25.7987 90.0954C25.7987 90.0954 25.9679 90.2701 26.2244 90.592C26.3553 90.7557 26.5081 90.9522 26.6718 91.1868C26.841 91.4215 27.0102 91.6998 27.2121 91.9836C27.4085 92.2782 27.6159 92.6002 27.8123 92.9549C27.916 93.135 28.0143 93.3205 28.107 93.5115C28.1561 93.6097 28.2053 93.708 28.2544 93.8062C28.3035 93.9044 28.358 94.0026 28.4072 94.1009C28.6091 94.5047 28.8001 94.9358 28.9747 95.3997C29.062 95.6343 29.1439 95.8689 29.2203 96.12C29.2967 96.371 29.384 96.6111 29.4549 96.8676ZM20.8656 105.746C21.4549 105.948 22.0388 106.101 22.6009 106.215C22.8847 106.27 23.163 106.319 23.4304 106.357C23.7087 106.39 23.9815 106.412 24.2489 106.423C25.3185 106.477 26.2789 106.412 27.0866 106.297C27.8942 106.183 28.5709 105.992 29.0238 105.85C29.4822 105.708 29.7387 105.599 29.7387 105.599C29.7387 105.599 29.5368 105.408 29.1657 105.102C28.7837 104.808 28.2707 104.366 27.605 103.891C27.2721 103.656 26.9065 103.405 26.5081 103.16C26.1152 102.903 25.7005 102.636 25.253 102.385C24.8055 102.128 24.3199 101.888 23.8123 101.659C23.3158 101.413 22.7919 101.19 22.2407 100.988C21.6896 100.786 21.122 100.633 20.5872 100.48C20.0525 100.333 19.5177 100.207 18.9993 100.109C18.4808 100.011 17.9733 99.9344 17.4877 99.8799C17.002 99.8253 16.56 99.7653 16.1398 99.7325C15.3049 99.6616 14.5954 99.6507 14.0989 99.6507C13.6023 99.6561 13.313 99.678 13.313 99.678C13.313 99.678 13.4822 99.9453 13.8151 100.376C13.9788 100.595 14.1862 100.851 14.4263 101.146C14.6664 101.435 14.9392 101.763 15.2721 102.079C15.5995 102.401 15.9652 102.745 16.3635 103.083C16.56 103.252 16.7673 103.427 16.9856 103.596C17.0948 103.678 17.2039 103.765 17.313 103.853C17.4276 103.934 17.5477 104.011 17.6623 104.093C18.137 104.409 18.6446 104.72 19.1739 104.999C19.4413 105.14 19.7087 105.277 19.987 105.402C20.2762 105.539 20.5709 105.642 20.8656 105.746ZM22.2407 87.9508C22.2516 88.2182 22.2571 88.4801 22.2516 88.7475C22.2462 89.0149 22.2407 89.2714 22.2298 89.5279C22.2134 90.0409 22.1698 90.5429 22.1098 91.034C22.0497 91.5252 21.9733 91.9999 21.886 92.4529C21.8042 92.9003 21.7278 93.3205 21.635 93.708C21.4604 94.4883 21.2748 95.1432 21.1275 95.6016C20.9856 96.0599 20.8819 96.3219 20.8819 96.3219C20.8819 96.3219 20.6909 96.12 20.3908 95.7489C20.2435 95.5634 20.0634 95.3287 19.8724 95.0613C19.6814 94.7885 19.4576 94.4883 19.2667 94.1336C18.8683 93.4242 18.4372 92.5838 18.1098 91.6234C17.957 91.1377 17.8151 90.6248 17.7114 90.1009C17.6023 89.5716 17.5149 89.0313 17.5095 88.4583C17.4931 87.8908 17.5149 87.3396 17.5695 86.8103C17.6241 86.2864 17.7059 85.7844 17.8424 85.2933C18.0934 84.3274 18.4263 83.4761 18.7591 82.7776C18.841 82.6029 18.9283 82.4392 19.0102 82.281C19.0975 82.1227 19.1848 81.9754 19.2667 81.8335C19.4304 81.5552 19.5832 81.3205 19.7141 81.1295C19.9761 80.7475 20.1452 80.5402 20.1452 80.5402C20.1452 80.5402 20.2653 80.7476 20.4399 81.1241C20.6036 81.5061 20.8765 82.0299 21.1166 82.6957C21.2421 83.0286 21.3621 83.3942 21.4713 83.7871C21.6023 84.1746 21.7223 84.5838 21.826 85.0259C21.9297 85.4679 22.0061 85.9426 22.077 86.4283C22.1643 86.9085 22.2189 87.416 22.2407 87.9508ZM11.9379 94.7066C12.1998 94.8758 12.4617 95.0286 12.7291 95.1705C12.8601 95.2414 12.9911 95.3123 13.122 95.3778C13.2585 95.4379 13.3894 95.4979 13.5259 95.5579C14.0606 95.7871 14.59 95.9726 15.1029 96.12C15.6104 96.2673 16.1016 96.3819 16.5654 96.4692C17.0347 96.5511 17.4877 96.5947 17.8969 96.622C18.7209 96.6766 19.4031 96.6602 19.8778 96.622C20.3526 96.5893 20.6254 96.5402 20.6254 96.5402C20.6254 96.5402 20.4727 96.3055 20.1834 95.9181C20.0361 95.7271 19.856 95.4979 19.6432 95.2414C19.4304 94.9849 19.1684 94.7121 18.9119 94.3956C18.3826 93.7735 17.7059 93.1022 16.9365 92.4092C16.56 92.06 16.1507 91.7052 15.7087 91.3669C15.2667 91.0286 14.7864 90.7012 14.3062 90.3737C13.8205 90.0518 13.3185 89.7626 12.8164 89.5006C12.3144 89.2441 11.8069 89.0149 11.3321 88.7967C10.3772 88.3655 9.44401 88.0436 8.63091 87.7926C8.42355 87.7325 8.22709 87.678 8.04156 87.6234C7.85602 87.5688 7.68139 87.5197 7.51768 87.4761C7.19026 87.3887 6.89558 87.3178 6.65547 87.2578C6.17525 87.1486 5.89149 87.105 5.89149 87.105C5.89149 87.105 5.99517 87.4051 6.21345 87.9072C6.42082 88.4147 6.79735 89.0968 7.28303 89.8826C7.5286 90.2755 7.80145 90.6902 8.10704 91.1213C8.43446 91.5361 8.78917 91.9617 9.17662 92.3874C9.56952 92.8076 9.9788 93.2278 10.4372 93.6207C10.9174 94.0081 11.414 94.3737 11.9379 94.7066ZM17.1384 77.6643C16.9747 78.7012 16.68 79.7053 16.3362 80.6384C16.0252 81.5606 15.6596 82.4065 15.3049 83.1377C14.9556 83.8635 14.6173 84.4692 14.3935 84.8785C14.1589 85.2932 14.0061 85.5224 14.0061 85.5224C14.0061 85.5224 13.8533 85.2878 13.635 84.8621C13.4331 84.4256 13.1657 83.798 12.9092 83.0231C12.6309 82.2591 12.4508 81.3205 12.3308 80.311C12.3035 80.06 12.2762 79.8035 12.2598 79.5415C12.2435 79.2796 12.2544 79.0068 12.2598 78.7394C12.2817 78.1991 12.3308 77.6425 12.4235 77.0913C12.4727 76.813 12.5218 76.5456 12.5927 76.2837C12.6691 76.0163 12.751 75.7598 12.8383 75.5033C13.0184 75.0013 13.2203 74.5265 13.4385 74.0845C13.8642 73.2059 14.399 72.4474 14.8901 71.8362C15.3813 71.225 15.8342 70.7612 16.1671 70.4447C16.4999 70.1336 16.7073 69.9699 16.7073 69.9699C16.7073 69.9699 17.0293 70.8812 17.1821 72.2892C17.2967 72.9877 17.3785 73.8062 17.3621 74.723C17.4003 75.6234 17.3403 76.6111 17.1384 77.6643ZM5.61318 81.9535C6.51905 82.8267 7.47403 83.5143 8.38535 84.0381C9.32941 84.5511 10.2407 84.9003 11.0211 85.1459C11.8069 85.3915 12.4617 85.5279 12.9474 85.5934C13.4222 85.6643 13.7005 85.6752 13.7005 85.6752C13.7005 85.6752 13.5968 85.4133 13.3894 84.9822C13.1984 84.5402 12.9092 83.9181 12.4999 83.2087C12.0743 82.5047 11.6214 81.6698 11.0102 80.8294C10.8574 80.6166 10.6991 80.4038 10.53 80.1909C10.3608 79.9781 10.2025 79.7598 10.0279 79.5415C9.68412 79.105 9.30213 78.6793 8.88194 78.2591C8.67457 78.0463 8.45629 77.8499 8.24347 77.648C8.0361 77.4515 7.82873 77.2605 7.61591 77.075C7.19026 76.7039 6.75916 76.3656 6.32805 76.0545C5.45493 75.4324 4.64729 74.8976 3.91605 74.4665C3.19026 74.0409 2.55179 73.7189 2.09886 73.5061C1.64593 73.2933 1.37308 73.1896 1.37308 73.1896C1.37308 73.1896 1.5477 74.4501 2.11523 76.2128C2.43719 77.0859 2.8683 78.0736 3.41946 79.0777C4.01973 80.0654 4.75097 81.0641 5.61318 81.9535ZM14.4426 66.4829C14.2407 66.974 13.9952 67.4488 13.7551 67.9017C13.5204 68.3547 13.2694 68.7912 13.0129 69.2059C12.4945 70.0354 11.916 70.7885 11.4413 71.4106C10.9556 72.0381 10.5081 72.5456 10.1862 72.9003C9.8642 73.2496 9.65683 73.4461 9.65683 73.4461C9.65683 73.4461 9.56952 73.1787 9.45492 72.7148C9.40035 72.4802 9.33487 72.1964 9.27484 71.869C9.24756 71.7053 9.20936 71.5306 9.18753 71.3451C9.1657 71.1596 9.14933 70.9631 9.13296 70.7612C9.10022 70.3519 9.07839 69.9154 9.07839 69.4515C9.07839 68.9877 9.07839 68.502 9.16024 67.989C9.22573 67.4815 9.3185 66.9631 9.44401 66.4392C9.50949 66.1773 9.58044 65.9154 9.66229 65.6534C9.74415 65.3915 9.85329 65.1296 9.96243 64.8676C10.1862 64.3492 10.4481 63.8635 10.721 63.4106C10.9993 62.9577 11.2776 62.5429 11.6104 62.1609C12.2489 61.3969 12.9147 60.7748 13.5149 60.2892C13.8205 60.0436 14.0988 59.8362 14.3608 59.6562C14.6282 59.4761 14.8683 59.3287 15.0702 59.2141C15.4686 58.9795 15.7141 58.8649 15.7141 58.8649C15.7141 58.8649 15.736 59.105 15.7305 59.5252C15.725 59.9454 15.7469 60.5347 15.6814 61.2442C15.6541 61.5989 15.5995 61.9809 15.5395 62.3847C15.4904 62.7885 15.4249 63.2141 15.3267 63.6616C15.2339 64.1036 15.1029 64.5675 14.9556 65.0368C14.8137 65.5115 14.65 65.9972 14.4426 66.4829ZM2.26803 68.0873C2.60636 68.6166 2.95015 69.1023 3.33215 69.5443C3.71959 69.9863 4.12341 70.3792 4.51632 70.7394C5.3185 71.4542 6.08248 72.0054 6.81918 72.4147C7.54497 72.824 8.16707 73.1023 8.61454 73.2769C9.05656 73.4515 9.32396 73.5279 9.32396 73.5279C9.32396 73.5279 9.28576 73.2496 9.18753 72.7748C9.13842 72.5402 9.06748 72.2564 8.98562 71.929C8.94196 71.7653 8.89285 71.5961 8.84374 71.416C8.80008 71.236 8.75097 71.045 8.6964 70.8485C8.58726 70.4556 8.45629 70.03 8.29804 69.5825C8.13978 69.135 7.94333 68.6766 7.76325 68.1909C7.57225 67.7107 7.35397 67.2141 7.09749 66.7175C6.97198 66.4665 6.83555 66.2155 6.68821 65.9645C6.54087 65.7134 6.40991 65.4624 6.25711 65.2059C5.95152 64.7039 5.62409 64.2237 5.2803 63.7708C4.94197 63.3178 4.57089 62.8922 4.23801 62.4884C3.55588 61.6862 2.85738 60.9877 2.23528 60.4092C1.92423 60.12 1.6241 59.8635 1.36216 59.6398C1.10568 59.416 0.871029 59.2251 0.680033 59.0723C0.292585 58.7612 0.0579328 58.603 0.0579328 58.603C0.0579328 58.603 0.0251907 58.9195 0.00336259 59.4652C-0.0130085 60.0109 0.0306477 60.7912 0.128874 61.708C0.183444 62.1664 0.248929 62.663 0.347155 63.1814C0.461752 63.6998 0.603635 64.2401 0.772803 64.7858C0.947427 65.3369 1.13842 65.8935 1.38399 66.4447C1.64047 67.0068 1.93515 67.5525 2.26803 68.0873ZM14.2189 54.9577C13.9242 55.3888 13.5968 55.8035 13.2585 56.1909C12.9201 56.5839 12.5545 56.9495 12.2271 57.2987C11.5504 57.9972 10.8574 58.603 10.2298 59.1105C9.91877 59.3615 9.61864 59.5907 9.3567 59.7871C9.10022 59.9836 8.86557 60.1527 8.67457 60.2837C8.28712 60.5566 8.04701 60.6984 8.04701 60.6984C8.04701 60.6984 8.01427 60.4201 7.99244 59.9399C7.97607 59.4597 8.01973 58.7721 8.11795 57.9645C8.16707 57.5607 8.23255 57.1241 8.32532 56.6712C8.43992 56.2182 8.57634 55.7435 8.74005 55.2633C8.90922 54.783 9.09476 54.2919 9.32941 53.8117C9.58044 53.3315 9.86966 52.8567 10.1916 52.3983C10.519 51.9399 10.8574 51.5197 11.2285 51.1432C11.6104 50.7667 11.9979 50.4283 12.3853 50.1227C13.1657 49.517 13.9133 49.0532 14.6391 48.7203C15.3485 48.382 15.9597 48.1582 16.3963 48.0218C16.8328 47.8799 17.0948 47.8253 17.0948 47.8253C17.0948 47.8253 17.0675 48.0654 16.9802 48.4747C16.9365 48.6766 16.8819 48.9222 16.8055 49.2005C16.7673 49.3424 16.7237 49.4843 16.68 49.6425C16.6418 49.8008 16.5982 49.959 16.5491 50.1282C16.4508 50.4665 16.3308 50.8322 16.1834 51.2141C16.0361 51.5961 15.8506 51.989 15.6814 52.4038C15.5013 52.8185 15.2885 53.2387 15.0429 53.6698C14.9174 53.8826 14.7864 54.0955 14.6446 54.3137C14.4972 54.5211 14.3717 54.7394 14.2189 54.9577ZM1.98972 53.8335C2.208 54.4229 2.45902 54.9795 2.73187 55.4925C3.00472 56.0054 3.28303 56.4802 3.61045 56.9167C4.24893 57.7899 4.90922 58.4993 5.5095 59.0613C5.80963 59.3396 6.08794 59.5852 6.35534 59.7926C6.62273 60 6.86284 60.1691 7.06475 60.3055C7.46311 60.5784 7.70868 60.7094 7.70868 60.7094C7.70868 60.7094 7.73051 60.4311 7.71959 59.9454C7.71413 59.4597 7.73596 58.7776 7.67048 57.959C7.64319 57.5497 7.59408 57.1077 7.53405 56.6384C7.4904 56.1691 7.42491 55.678 7.3376 55.165C7.25029 54.6521 7.12478 54.1227 6.98289 53.577C6.85738 53.0368 6.69913 52.4802 6.50268 51.9236C6.31168 51.3615 6.07157 50.8212 5.84238 50.3028C5.61864 49.7899 5.37853 49.2933 5.12751 48.824C4.63092 47.8854 4.06339 47.045 3.61045 46.3465C3.14115 45.648 2.70459 45.0805 2.38808 44.693C2.07157 44.3056 1.87512 44.0927 1.87512 44.0927C1.87512 44.0927 1.77689 44.3929 1.65138 44.9277C1.5859 45.1951 1.51496 45.517 1.44402 45.8881C1.41127 46.0736 1.36762 46.2701 1.34033 46.4829C1.31305 46.6957 1.29122 46.914 1.26939 47.1487C1.22574 47.6125 1.19845 48.1091 1.18208 48.6384C1.17117 49.1678 1.16571 49.7189 1.23119 50.2974C1.28576 50.8704 1.37308 51.4652 1.49313 52.06C1.55316 52.3547 1.61864 52.6548 1.69504 52.9495C1.77144 53.2387 1.88603 53.5388 1.98972 53.8335ZM16.4999 43.6835C16.3035 43.8581 16.0961 44.0272 15.8942 44.191C15.6978 44.3547 15.4958 44.5184 15.2939 44.6712C14.8901 44.9768 14.4699 45.2605 14.0552 45.5225C13.2094 46.0409 12.4235 46.4829 11.7141 46.8376C11.0047 47.1923 10.3772 47.4597 9.93514 47.6343C9.48767 47.809 9.22573 47.8963 9.22573 47.8963C9.22573 47.8963 9.36761 46.7885 9.88603 45.2442C10.1807 44.4856 10.5736 43.618 11.0866 42.7503C11.6323 41.8936 12.3144 41.0368 13.133 40.2783C13.9897 39.5361 14.8956 38.974 15.7687 38.5484C16.6746 38.1391 17.5422 37.8717 18.2953 37.6917C19.0484 37.517 19.6814 37.4297 20.1507 37.397C20.6145 37.3642 20.8819 37.3642 20.8819 37.3642C20.8819 37.3642 20.7946 37.588 20.6145 37.9645C20.4508 38.3465 20.1998 38.8813 19.8396 39.487C19.4631 40.0873 19.0593 40.7967 18.4972 41.5116C18.3553 41.6916 18.2134 41.8717 18.0552 42.0464C17.8969 42.2264 17.7551 42.412 17.5913 42.5921C17.253 42.9686 16.8983 43.3288 16.4999 43.6835ZM4.81646 39.8526C4.85465 40.1637 4.89831 40.4638 4.95288 40.764C5.01837 41.0641 5.08931 41.3533 5.17116 41.6371C5.32942 42.2046 5.52041 42.7339 5.72232 43.2251C6.11523 44.2073 6.63364 45.0586 7.1084 45.7408C7.58317 46.4229 8.02518 46.9468 8.35261 47.296C8.67457 47.6453 8.88194 47.8308 8.88194 47.8308C8.88194 47.8308 9.23119 46.7667 9.44401 45.135C9.58589 44.3274 9.70049 43.3779 9.72777 42.3356C9.7878 41.2987 9.77689 40.1746 9.62409 38.985C9.50949 37.8117 9.26393 36.693 8.96379 35.6562C8.69094 34.6357 8.36352 33.7026 8.04701 32.9058C7.73051 32.1146 7.414 31.4597 7.20663 31.0123C6.98835 30.5648 6.84647 30.3138 6.84647 30.3138C6.84647 30.3138 6.6773 30.5812 6.43173 31.0723C6.20254 31.5689 5.89149 32.2837 5.59135 33.1623C5.26939 34.03 5.04019 35.0941 4.86557 36.2292C4.82191 36.5129 4.78917 36.8022 4.76189 37.0968C4.72914 37.3915 4.72914 37.6971 4.72369 38.0027C4.71823 38.6084 4.74551 39.2305 4.81646 39.8526ZM21.1875 33.2005C20.7346 33.4625 20.2707 33.6917 19.796 33.899C19.3212 34.1064 18.841 34.281 18.399 34.4502C17.4931 34.7831 16.6036 35.0286 15.8233 35.2087C15.4304 35.296 15.0702 35.3724 14.7592 35.4379C14.4426 35.5034 14.1589 35.5525 13.9297 35.5907C13.4604 35.6671 13.1875 35.6889 13.1875 35.6889C13.1875 35.6889 13.2748 35.4215 13.4658 34.985C13.6405 34.5375 13.9788 33.9427 14.4099 33.2551C14.6282 32.9113 14.8737 32.5511 15.1521 32.1801C15.4467 31.8199 15.7742 31.4543 16.1234 31.0941C16.4781 30.7339 16.8546 30.3738 17.2803 30.0464C17.7114 29.7244 18.1752 29.4188 18.6609 29.146C18.9065 29.0095 19.1466 28.884 19.3922 28.7694C19.5122 28.7148 19.6377 28.6548 19.7578 28.6057C19.8833 28.5566 20.0088 28.5129 20.1343 28.4638C20.6364 28.2892 21.1275 28.1528 21.6077 28.0436C22.0879 27.94 22.5463 27.8636 22.9829 27.8199C23.4249 27.7762 23.856 27.7653 24.2435 27.7653C25.0238 27.7653 25.6677 27.8308 26.1207 27.8963C26.5736 27.9618 26.8301 28.0218 26.8301 28.0218C26.8301 28.0218 26.7046 28.2292 26.4535 28.5621C26.328 28.7258 26.1752 28.9222 25.9897 29.1405C25.8096 29.3642 25.575 29.5934 25.3512 29.8608C24.8928 30.3902 24.2871 30.9577 23.5941 31.5361C23.2557 31.8308 22.8847 32.12 22.4808 32.3983C22.077 32.6712 21.6295 32.9331 21.1875 33.2005ZM10.6336 26.8485C10.5791 27.4761 10.5736 28.0873 10.5954 28.6657C10.6173 29.2496 10.6773 29.8008 10.781 30.3356C10.9829 31.3997 11.2776 32.3329 11.5777 33.0968C11.6541 33.2878 11.7305 33.4679 11.8069 33.6425C11.8888 33.8172 11.9652 33.9754 12.0416 34.1282C12.1943 34.4284 12.3362 34.6903 12.4617 34.8977C12.7073 35.3178 12.871 35.5416 12.871 35.5416C12.871 35.5416 13.0074 35.296 13.2094 34.8595C13.4004 34.4174 13.7169 33.8062 14.0061 33.0423C14.1534 32.6603 14.3062 32.2401 14.4426 31.7926C14.6009 31.3506 14.7537 30.8758 14.8901 30.3738C15.032 29.8717 15.1411 29.3369 15.2503 28.7858C15.3703 28.2455 15.4631 27.6726 15.5231 27.0832C15.5559 26.7885 15.5777 26.4938 15.5886 26.1992C15.5995 25.9045 15.6104 25.6207 15.6214 25.337C15.6377 24.7749 15.6268 24.2237 15.5995 23.6889C15.5722 23.1541 15.5231 22.6357 15.4631 22.1501C15.4085 21.6644 15.354 21.2169 15.2885 20.7967C15.1575 19.9563 15.0047 19.2578 14.8847 18.7667C14.7646 18.2756 14.6718 18.0027 14.6718 18.0027C14.6718 18.0027 14.459 18.2319 14.1152 18.6576C13.9461 18.8704 13.7441 19.1323 13.5259 19.4379C13.3076 19.749 13.0511 20.0873 12.8274 20.4911C12.3635 21.2933 11.856 22.2428 11.4522 23.3179C11.2612 23.8636 11.0811 24.4311 10.9392 25.0204C10.8028 25.6153 10.6773 26.2155 10.6336 26.8485ZM28.0579 24.0109C27.5559 24.1637 27.032 24.2674 26.5409 24.3711C26.0443 24.4747 25.5531 24.5511 25.0675 24.6057C24.5818 24.6603 24.107 24.6985 23.6541 24.7203C23.2012 24.7421 22.7864 24.764 22.3881 24.7694C21.5968 24.7803 20.9256 24.753 20.4508 24.7203C19.9761 24.6876 19.6978 24.6494 19.6978 24.6494C19.6978 24.6494 19.8451 24.4147 20.1343 24.0327C20.2762 23.8417 20.4563 23.6125 20.6691 23.3615C20.8819 23.1105 21.122 22.8213 21.4222 22.5484C21.7169 22.2646 22.0388 21.9754 22.399 21.6807C22.5791 21.5334 22.7591 21.3861 22.9556 21.2387C23.0538 21.1678 23.1521 21.0914 23.2503 21.0204C23.354 20.955 23.4631 20.884 23.5668 20.8185C23.9979 20.5511 24.4563 20.2947 24.9365 20.0655C25.1766 19.9509 25.4222 19.8417 25.6732 19.738C25.9242 19.6344 26.1971 19.558 26.4645 19.4816C27.0047 19.3288 27.5395 19.2251 28.0579 19.1541C28.3198 19.1214 28.5709 19.0941 28.8219 19.0777C29.0784 19.0668 29.3294 19.0668 29.575 19.0668C30.5627 19.0832 31.4576 19.2087 32.2052 19.3724C32.9583 19.5361 33.5913 19.7599 34.017 19.9236C34.4481 20.0873 34.6882 20.2074 34.6882 20.2074C34.6882 20.2074 34.519 20.3765 34.1971 20.6385C33.8696 20.8895 33.4222 21.2769 32.8437 21.6753C32.5545 21.8772 32.2325 22.0846 31.8778 22.2865C31.534 22.4993 31.1684 22.723 30.7646 22.9249C30.3662 23.1323 29.9297 23.3233 29.4767 23.5034C29.0402 23.6889 28.5654 23.8636 28.0579 24.0109ZM19.1411 15.4761C18.9501 16.0764 18.7864 16.6494 18.6991 17.2333C18.6063 17.8172 18.5518 18.3792 18.53 18.914C18.5081 19.4488 18.5136 19.9618 18.5409 20.4365C18.5682 20.9113 18.6391 21.3697 18.7046 21.7844C18.8465 22.6084 19.0265 23.2742 19.1684 23.7326C19.3158 24.191 19.4194 24.4475 19.4194 24.4475C19.4194 24.4475 19.6104 24.2455 19.9106 23.869C20.0579 23.6835 20.238 23.4488 20.4345 23.1814C20.6309 22.914 20.8328 22.5975 21.0729 22.2646C21.3076 21.9318 21.5477 21.5607 21.7933 21.1569C21.9133 20.955 22.0334 20.7421 22.1534 20.5239C22.2134 20.4147 22.2735 20.3001 22.3335 20.191C22.3935 20.0818 22.459 19.9672 22.519 19.8581C22.7701 19.4052 23.0047 18.9195 23.2284 18.4065C23.3376 18.1501 23.4467 17.8827 23.545 17.6098C23.6432 17.337 23.7578 17.075 23.8505 16.7913C24.047 16.2346 24.2053 15.6726 24.3362 15.1159C24.4017 14.8376 24.4563 14.5593 24.5108 14.2865C24.5654 14.0136 24.62 13.7572 24.6636 13.4952C24.8492 12.4529 24.942 11.4597 24.9856 10.603C25.0293 9.74624 25.0511 9.04774 25.0347 8.54024C25.0238 8.03819 24.9965 7.74897 24.9965 7.74897C24.9965 7.74897 24.7346 7.9236 24.3035 8.25647C23.8669 8.57844 23.2939 9.10777 22.6555 9.76807C22.3335 10.1009 22.0006 10.472 21.6623 10.8704C21.3349 11.2797 21.0129 11.7381 20.7018 12.2183C20.3908 12.6985 20.0852 13.206 19.8124 13.7462C19.5668 14.3029 19.3376 14.8813 19.1411 15.4761ZM36.74 16.5566C35.7032 16.6385 34.6718 16.5948 33.6896 16.4802C32.7237 16.382 31.8287 16.2346 31.0484 16.06C30.2735 15.8908 29.6077 15.6999 29.1602 15.5689C28.7073 15.4379 28.4508 15.3397 28.4508 15.3397C28.4508 15.3397 28.4999 15.2906 28.5872 15.1978C28.68 15.1105 28.811 14.9686 28.9965 14.8213C29.3676 14.5211 29.9078 14.1064 30.5845 13.6698C31.9488 12.8076 33.9406 11.929 36.167 11.7872C36.7127 11.7381 37.2748 11.7763 37.7932 11.8254C38.3171 11.8799 38.8192 11.9672 39.2939 12.0709C39.5286 12.1255 39.7632 12.1801 39.987 12.251C40.2107 12.322 40.429 12.3984 40.6418 12.4748C41.062 12.633 41.4494 12.7967 41.7987 12.9659C42.5026 13.2988 43.0538 13.6371 43.4358 13.8827C43.6268 14.0082 43.7741 14.1173 43.8724 14.1937C43.9706 14.2701 44.0252 14.3138 44.0252 14.3138C44.0252 14.3138 43.8178 14.4338 43.4576 14.6357C43.092 14.8322 42.5681 15.0887 41.9133 15.3397C41.5804 15.4543 41.2366 15.6125 40.8546 15.7381C40.4726 15.869 40.0634 15.9891 39.6213 16.0928C39.5122 16.1146 39.3976 16.1419 39.2885 16.1692C39.1793 16.1964 39.0647 16.2237 38.9556 16.251C38.7264 16.3056 38.4972 16.3492 38.2571 16.3929C37.7769 16.4748 37.2748 16.5348 36.74 16.5566ZM29.8915 6.24829C29.2639 7.33969 28.8383 8.44747 28.5545 9.46793C28.2762 10.5102 28.1616 11.4925 28.1125 12.3165C28.0688 13.146 28.0852 13.8226 28.1343 14.3083C28.1834 14.794 28.2325 15.0723 28.2325 15.0723C28.2325 15.0723 28.2871 15.0286 28.3908 14.9522C28.4945 14.8758 28.6364 14.7449 28.8274 14.603C29.2039 14.3083 29.7332 13.8772 30.3171 13.3042C31.5013 12.1746 32.9856 10.603 34.208 8.57298C34.5027 8.04911 34.7973 7.56343 35.0429 7.05047C35.2939 6.54297 35.5177 6.03547 35.7141 5.53888C35.8123 5.28785 35.9051 5.04229 35.9924 4.79672C36.0852 4.56207 36.167 4.32742 36.2489 4.09822C36.4072 3.63983 36.5436 3.20327 36.6636 2.794C36.8983 1.97544 37.0565 1.27149 37.1493 0.774897C37.193 0.529331 37.2312 0.332878 37.253 0.20191C37.2748 0.0709413 37.2857 0 37.2857 0C37.2857 0 37.2148 0.0272851 37.0784 0.0818553C36.9419 0.136426 36.7509 0.229195 36.5054 0.349249C36.0197 0.594815 35.3376 0.960436 34.5627 1.45157C34.1698 1.69168 33.7769 2.00273 33.3676 2.33015C32.9583 2.66303 32.5381 3.02319 32.1234 3.4161C32.0197 3.51432 31.916 3.61801 31.8123 3.71623C31.7141 3.82537 31.6159 3.93451 31.5177 4.04365C31.3212 4.26739 31.1302 4.49659 30.9392 4.73124C30.5736 5.21691 30.2134 5.71896 29.8915 6.24829ZM43.0429 1.90996C42.5027 2.22646 42.0061 2.5648 41.5477 2.91951C41.3185 3.09413 41.1002 3.27967 40.8983 3.47612C40.6909 3.66712 40.4945 3.86357 40.3089 4.05457C39.5668 4.82946 38.9829 5.5989 38.5409 6.2974C38.0988 7.01227 37.7987 7.63437 37.6022 8.07639C37.4058 8.51841 37.3185 8.7858 37.3185 8.7858C37.3185 8.7858 37.5968 8.76398 38.0661 8.67666C38.3007 8.63846 38.5845 8.57844 38.9065 8.5075C39.2284 8.44201 39.5941 8.37653 39.9924 8.2783C40.7837 8.09822 41.6896 7.79263 42.6609 7.46521C43.1466 7.29058 43.6432 7.08867 44.1507 6.85402C44.2762 6.79399 44.4017 6.73396 44.5327 6.66848C44.6582 6.60845 44.7891 6.54843 44.9147 6.4884C45.1711 6.36289 45.4276 6.23192 45.6841 6.09004C46.1971 5.80081 46.6882 5.48976 47.152 5.16234C47.6159 4.83492 48.0579 4.52933 48.4726 4.19645C49.3021 3.54706 50.0279 2.85402 50.6336 2.25921C51.2339 1.67531 51.7141 1.15143 52.0361 0.76944C52.3635 0.392906 52.5327 0.158254 52.5327 0.158254C52.5327 0.158254 52.2216 0.10914 51.6814 0.0709413C51.4085 0.0491132 51.0811 0.0327421 50.71 0.0218281C50.3335 0.0163711 49.9133 0.0436562 49.4549 0.0709413C48.9965 0.103683 48.5054 0.152797 47.987 0.229195C47.7305 0.267394 47.4631 0.305593 47.1957 0.36562C46.9283 0.425648 46.6554 0.496589 46.3771 0.56753C45.2694 0.862209 44.1234 1.25512 43.0429 1.90996ZM59.8069 111.389C61.4931 112.622 62.8628 114.237 63.8451 115.481C64.3307 116.115 64.7182 116.682 64.9801 117.086C65.2421 117.49 65.3785 117.741 65.3785 117.741C65.3785 117.741 64.2762 117.823 62.6772 117.621C61.8805 117.506 60.9637 117.266 60.0197 116.939C59.5449 116.786 59.0702 116.546 58.5954 116.295C58.1261 116.038 57.6568 115.749 57.2093 115.421C56.9856 115.263 56.7728 115.083 56.5709 114.892C56.3689 114.707 56.1725 114.516 55.9924 114.325C55.6268 113.943 55.2939 113.55 54.9992 113.157C54.8519 112.96 54.7155 112.769 54.5845 112.573C54.4535 112.371 54.3389 112.169 54.2243 111.973C54.0006 111.58 53.8096 111.198 53.6513 110.843C53.3294 110.128 53.1166 109.512 52.9856 109.075C52.8546 108.638 52.8055 108.366 52.8055 108.366C52.8055 108.366 52.8655 108.376 52.9747 108.398C53.0838 108.415 53.2421 108.442 53.444 108.486C53.8478 108.573 54.4099 108.715 55.0702 108.955C55.3976 109.086 55.7632 109.184 56.1343 109.342C56.5108 109.49 56.9037 109.664 57.3021 109.872C57.7004 110.09 58.1206 110.286 58.5408 110.537C58.961 110.783 59.3812 111.067 59.8069 111.389Z" fill="#FF5A26"/>
</svg>
