<svg width="134" height="30" viewBox="0 0 134 30" fill="none" xmlns="http://www.w3.org/2000/svg">
<g clip-path="url(#clip0_133_82)">
<path d="M29.0965 2.84277H13.4962H8.89726H1.20233C0.54105 2.84277 0 3.38713 0 4.05245V17.5706C0 18.2359 0.54105 18.7803 1.20233 18.7803C1.86362 18.7803 2.40467 18.2359 2.40467 17.5706V5.26213H8.89726H13.4962C14.8188 5.26213 15.9009 6.35084 15.9009 7.68148V17.5706C15.9009 18.2359 16.4419 18.7803 17.1032 18.7803C17.7645 18.7803 18.3055 18.2359 18.3055 17.5706V7.68148C18.3055 6.80447 18.0651 5.98794 17.6442 5.26213H29.0664C30.389 5.26213 31.4711 6.35084 31.4711 7.68148V17.5706C31.4711 18.2359 32.0121 18.7803 32.6734 18.7803C33.3347 18.7803 33.8757 18.2359 33.8757 17.5706V7.68148C33.9058 5.02019 31.7416 2.84277 29.0965 2.84277Z" fill="#393936"/>
<path d="M44.7268 2.84277H35.7093C35.048 2.84277 34.507 3.38713 34.507 4.05245C34.507 4.71777 35.048 5.26213 35.7093 5.26213H44.7268C46.0494 5.26213 47.1315 6.35084 47.1315 7.68148V17.5706C47.1315 18.2359 47.6725 18.7803 48.3338 18.7803C48.9951 18.7803 49.5361 18.2359 49.5361 17.5706V7.68148C49.5361 5.02019 47.3719 2.84277 44.7268 2.84277Z" fill="#393936"/>
<path d="M89.0628 4.05242C89.0628 3.3871 88.5217 2.84274 87.8604 2.84274H78.0314C75.3862 2.84274 73.222 5.02016 73.222 7.68145V16.3306H59.4854C58.1628 16.3306 57.0807 15.2419 57.0807 13.9113V5.29234H70.3064C70.9677 5.29234 71.5087 4.74798 71.5087 4.08266C71.5087 3.41734 70.9677 2.87298 70.3064 2.87298H57.0807V1.20968C57.0807 0.544355 56.5397 0 55.8784 0C55.2171 0 54.6761 0.544355 54.6761 1.20968V2.87298H52.8124C52.1512 2.87298 51.6101 3.41734 51.6101 4.08266C51.6101 4.74798 52.1512 5.29234 52.8124 5.29234H54.6761V13.9113C54.6761 16.5726 56.8403 18.75 59.4854 18.75H74.4244C75.0857 18.75 75.6267 18.2056 75.6267 17.5403V7.68145C75.6267 6.35081 76.7088 5.2621 78.0314 5.2621H87.8604C88.5217 5.2621 89.0628 4.71774 89.0628 4.05242Z" fill="#393936"/>
<path d="M104.362 2.84277H90.7761C90.1148 2.84277 89.5738 3.38713 89.5738 4.05245C89.5738 4.71777 90.1148 5.26213 90.7761 5.26213H104.362C105.685 5.26213 106.767 6.35084 106.767 7.68148V9.10285C106.046 8.67947 105.234 8.43753 104.362 8.43753H91.1969C88.5518 8.43753 86.3876 10.615 86.3876 13.2762V13.8811C86.3876 16.5424 88.5518 18.7198 91.1969 18.7198H104.362C106.346 18.7198 108 18.6593 108 18.6593C108.661 18.6291 109.172 18.115 109.172 17.4496V16.7541V13.3065V7.68148C109.172 5.02019 107.038 2.84277 104.362 2.84277ZM106.767 16.3004C106.136 16.3004 105.294 16.3307 104.362 16.3307H91.1969C89.8743 16.3307 88.7922 15.242 88.7922 13.9113V13.3065C88.7922 11.9758 89.8743 10.8871 91.1969 10.8871H104.362C105.685 10.8871 106.767 11.9758 106.767 13.3065V16.3004Z" fill="#393936"/>
<path d="M48.3338 2.84269C48.9978 2.84269 49.5361 2.3011 49.5361 1.63302C49.5361 0.964931 48.9978 0.42334 48.3338 0.42334C47.6698 0.42334 47.1315 0.964931 47.1315 1.63302C47.1315 2.3011 47.6698 2.84269 48.3338 2.84269Z" fill="#393936"/>
<path d="M133.459 16.5422L125.013 10.7963L133.459 5.05029C134 4.68739 134.15 3.93134 133.79 3.35675C133.429 2.81239 132.677 2.66118 132.136 3.02408L122.878 9.28416L122.788 9.22368L113.951 2.99384C113.41 2.63094 112.659 2.75191 112.268 3.3265C111.937 3.84062 112.027 4.50594 112.448 4.89908L120.624 10.7055L120.684 10.766L120.624 10.8265L112.238 16.633C111.817 17.0261 111.697 17.6914 112.057 18.2055C112.418 18.7499 113.17 18.9011 113.741 18.5382L122.758 12.3084L122.848 12.2479L132.106 18.5382C132.647 18.9011 133.399 18.7801 133.76 18.2055C134.15 17.6612 134 16.9051 133.459 16.5422Z" fill="#393936"/>
<path d="M5.01974 28.2461H1.47286L0.7214 29.9397H0L2.91566 23.5889H3.57694L6.4926 29.9397H5.7712L5.01974 28.2461ZM4.77927 27.7018L3.2463 24.2844L1.71332 27.7018H4.77927Z" fill="#393936"/>
<path d="M11.1817 24.1937H8.9574V23.5889H14.0974V24.1937H11.8731V29.9699H11.2118V24.1937H11.1817Z" fill="#393936"/>
<path d="M19.2373 24.1937H17.0129V23.5889H22.1529V24.1937H19.9286V29.9699H19.2373V24.1937Z" fill="#393936"/>
<path d="M25.3091 26.7945C25.3091 24.9497 26.7218 23.5586 28.6456 23.5586C30.5693 23.5586 31.982 24.9195 31.982 26.7945C31.982 28.6695 30.5392 30.0304 28.6456 30.0304C26.7218 30.0001 25.3091 28.6392 25.3091 26.7945ZM31.3207 26.7945C31.3207 25.2824 30.1785 24.1634 28.6456 24.1634C27.1126 24.1634 25.9704 25.2824 25.9704 26.7945C25.9704 28.3066 27.1126 29.4255 28.6456 29.4255C30.1785 29.4255 31.3207 28.3066 31.3207 26.7945Z" fill="#393936"/>
<path d="M40.5788 29.9699L39.136 27.9135C38.9857 27.9437 38.8053 27.9437 38.625 27.9437H36.9116V29.9699H36.2504V23.5889H38.625C40.2481 23.5889 41.24 24.4054 41.24 25.7663C41.24 26.7643 40.699 27.4598 39.7972 27.7623L41.3603 29.9397H40.5788V29.9699ZM40.5487 25.7965C40.5487 24.7683 39.8874 24.1937 38.5949 24.1937H36.9116V27.3691H38.5949C39.8574 27.3691 40.5487 26.7945 40.5487 25.7965Z" fill="#393936"/>
<path d="M50.8587 23.5889V29.9397H50.3176L46.1996 24.7985V29.9699H45.5383V23.5889H46.0794L50.1974 28.7602V23.5889H50.8587Z" fill="#393936"/>
<path d="M60.1767 29.3651V29.9397H55.668V23.5889H60.0264V24.1937H56.3293V26.4619H59.6357V27.0364H56.3293V29.3953H60.1767V29.3651Z" fill="#393936"/>
<path d="M66.5792 27.7623V29.9699H65.9179V27.7623L63.3629 23.5889H64.0843L66.2786 27.1574L68.4728 23.5889H69.1341L66.5792 27.7623Z" fill="#393936"/>
<path d="M72.17 29.1836L72.4406 28.6695C72.8914 29.1231 73.703 29.4558 74.5446 29.4558C75.747 29.4558 76.258 28.9417 76.258 28.3368C76.258 26.5828 72.3504 27.6715 72.3504 25.3126C72.3504 24.3751 73.0718 23.5586 74.6949 23.5586C75.4163 23.5586 76.1678 23.7703 76.6788 24.1332L76.4383 24.6775C75.8973 24.3146 75.266 24.1634 74.6949 24.1634C73.5227 24.1634 73.0117 24.6775 73.0117 25.3126C73.0117 27.0667 76.9193 26.0082 76.9193 28.3066C76.9193 29.2441 76.1678 30.0304 74.5446 30.0304C73.5828 30.0001 72.6209 29.6675 72.17 29.1836Z" fill="#393936"/>
<path d="M90.205 28.2461H86.6581L85.9067 29.9397H85.2153L88.131 23.5889H88.7923L91.7079 29.9397H90.9865L90.205 28.2461ZM89.9645 27.7018L88.4316 24.2844L86.8986 27.7018H89.9645Z" fill="#393936"/>
<path d="M96.367 24.1937H94.1427V23.5889H99.2827V24.1937H97.0583V29.9699H96.3971V24.1937H96.367Z" fill="#393936"/>
<path d="M108.21 23.5889H108.871V29.3651H112.448V29.9397H108.21V23.5889Z" fill="#393936"/>
<path d="M120.323 28.2461H116.777L116.025 29.9397H115.334L118.249 23.5889H118.911L121.826 29.9397H121.105L120.323 28.2461ZM120.053 27.7018L118.52 24.2844L116.987 27.7018H120.053Z" fill="#393936"/>
<path d="M134 23.5889L131.866 29.9397H131.144L129.251 24.5264L127.387 29.9397H126.696L124.562 23.5889H125.253L127.087 29.0627L128.98 23.5889H129.611L131.475 29.0929L133.339 23.5889H134Z" fill="#393936"/>
</g>
<defs>
<clipPath id="clip0_133_82">
<rect width="134" height="30" fill="white"/>
</clipPath>
</defs>
</svg>
