<svg width="160" height="36" viewBox="0 0 160 36" fill="none" xmlns="http://www.w3.org/2000/svg">
<g clip-path="url(#clip0_119_240)">
<path d="M34.742 3.41113H16.1149H10.6236H1.43562C0.64603 3.41113 0 4.06436 0 4.86275V21.0845C0 21.8829 0.64603 22.5361 1.43562 22.5361C2.22521 22.5361 2.87124 21.8829 2.87124 21.0845V6.31436H10.6236H16.1149C17.694 6.31436 18.9861 7.62081 18.9861 9.21759V21.0845C18.9861 21.8829 19.6321 22.5361 20.4217 22.5361C21.2113 22.5361 21.8573 21.8829 21.8573 21.0845V9.21759C21.8573 8.16517 21.5702 7.18533 21.0677 6.31436H34.7062C36.2853 6.31436 37.5774 7.62081 37.5774 9.21759V21.0845C37.5774 21.8829 38.2234 22.5361 39.013 22.5361C39.8026 22.5361 40.4486 21.8829 40.4486 21.0845V9.21759C40.4845 6.02404 37.9004 3.41113 34.742 3.41113Z" fill="white"/>
<path d="M53.4051 3.41113H42.638C41.8484 3.41113 41.2023 4.06436 41.2023 4.86275C41.2023 5.66113 41.8484 6.31436 42.638 6.31436H53.4051C54.9843 6.31436 56.2764 7.62081 56.2764 9.21759V21.0845C56.2764 21.8829 56.9224 22.5361 57.712 22.5361C58.5016 22.5361 59.1476 21.8829 59.1476 21.0845V9.21759C59.1476 6.02404 56.5635 3.41113 53.4051 3.41113Z" fill="white"/>
<path d="M106.344 4.8629C106.344 4.06452 105.698 3.41129 104.908 3.41129H93.1718C90.0134 3.41129 87.4293 6.02419 87.4293 9.21774V19.5968H71.0273C69.4482 19.5968 68.1561 18.2903 68.1561 16.6935V6.35081H83.9479C84.7375 6.35081 85.3835 5.69758 85.3835 4.89919C85.3835 4.10081 84.7375 3.44758 83.9479 3.44758H68.1561V1.45161C68.1561 0.653226 67.5101 0 66.7205 0C65.9309 0 65.2849 0.653226 65.2849 1.45161V3.44758H63.0596C62.2701 3.44758 61.624 4.10081 61.624 4.89919C61.624 5.69758 62.2701 6.35081 63.0596 6.35081H65.2849V16.6935C65.2849 19.8871 67.869 22.5 71.0273 22.5H88.8649C89.6545 22.5 90.3006 21.8468 90.3006 21.0484V9.21774C90.3006 7.62097 91.5926 6.31452 93.1718 6.31452H104.908C105.698 6.31452 106.344 5.66129 106.344 4.8629Z" fill="white"/>
<path d="M124.612 3.41113H108.389C107.6 3.41113 106.954 4.06436 106.954 4.86275C106.954 5.66113 107.6 6.31436 108.389 6.31436H124.612C126.191 6.31436 127.483 7.62081 127.483 9.21758V10.9232C126.622 10.4152 125.653 10.1248 124.612 10.1248H108.892C105.734 10.1248 103.149 12.7377 103.149 15.9313V16.6571C103.149 19.8506 105.734 22.4636 108.892 22.4636H124.612C126.981 22.4636 128.955 22.391 128.955 22.391C129.744 22.3547 130.354 21.7377 130.354 20.9394V20.1047V15.9676V9.21758C130.354 6.02404 127.806 3.41113 124.612 3.41113ZM127.483 19.5603C126.73 19.5603 125.725 19.5966 124.612 19.5966H108.892C107.313 19.5966 106.021 18.2902 106.021 16.6934V15.9676C106.021 14.3708 107.313 13.0644 108.892 13.0644H124.612C126.191 13.0644 127.483 14.3708 127.483 15.9676V19.5603Z" fill="white"/>
<path d="M57.712 3.41104C58.5049 3.41104 59.1476 2.76113 59.1476 1.95943C59.1476 1.15772 58.5049 0.507812 57.712 0.507812C56.9191 0.507812 56.2764 1.15772 56.2764 1.95943C56.2764 2.76113 56.9191 3.41104 57.712 3.41104Z" fill="white"/>
<path d="M159.354 19.8507L149.269 12.9555L159.354 6.06035C160 5.62487 160.18 4.71761 159.749 4.0281C159.318 3.37487 158.421 3.19342 157.775 3.6289L146.721 11.141L146.613 11.0684L136.061 3.59261C135.415 3.15713 134.518 3.30229 134.051 3.9918C133.656 4.60874 133.764 5.40713 134.267 5.8789L144.029 12.8466L144.101 12.9192L144.029 12.9918L134.015 19.9595C133.513 20.4313 133.369 21.2297 133.8 21.8466C134.231 22.4999 135.128 22.6813 135.81 22.2458L146.577 14.77L146.685 14.6974L157.739 22.2458C158.385 22.6813 159.282 22.5362 159.713 21.8466C160.179 21.1934 160 20.2862 159.354 19.8507Z" fill="white"/>
<path d="M5.99372 33.8949H1.75864L0.861373 35.9271H0L3.48138 28.3062H4.27097L7.75236 35.9271H6.89098L5.99372 33.8949ZM5.7066 33.2416L3.87618 29.1408L2.04576 33.2416H5.7066Z" fill="white"/>
<path d="M13.3513 29.032H10.6954V28.3062H16.8327V29.032H14.1768V35.9634H13.3872V29.032H13.3513Z" fill="white"/>
<path d="M22.97 29.032H20.3141V28.3062H26.4514V29.032H23.7955V35.9634H22.97V29.032Z" fill="white"/>
<path d="M30.2198 32.1531C30.2198 29.9394 31.9067 28.27 34.2037 28.27C36.5007 28.27 38.1876 29.9031 38.1876 32.1531C38.1876 34.4031 36.4648 36.0361 34.2037 36.0361C31.9067 35.9999 30.2198 34.3668 30.2198 32.1531ZM37.398 32.1531C37.398 30.3386 36.0341 28.9958 34.2037 28.9958C32.3733 28.9958 31.0094 30.3386 31.0094 32.1531C31.0094 33.9676 32.3733 35.3103 34.2037 35.3103C36.0341 35.3103 37.398 33.9676 37.398 32.1531Z" fill="white"/>
<path d="M48.4522 35.9634L46.7295 33.4957C46.55 33.532 46.3347 33.532 46.1193 33.532H44.0736V35.9634H43.284V28.3062H46.1193C48.0574 28.3062 49.2418 29.286 49.2418 30.9191C49.2418 32.1166 48.5958 32.9513 47.5191 33.3142L49.3854 35.9271H48.4522V35.9634ZM48.4163 30.9553C48.4163 29.7215 47.6267 29.032 46.0835 29.032H44.0736V32.8424H46.0835C47.5909 32.8424 48.4163 32.1529 48.4163 30.9553Z" fill="white"/>
<path d="M60.7268 28.3062V35.9271H60.0807L55.1637 29.7578V35.9634H54.3741V28.3062H55.0202L59.9372 34.5118V28.3062H60.7268Z" fill="white"/>
<path d="M71.8528 35.2376V35.9271H66.4692V28.3062H71.6734V29.032H67.2588V31.7537H71.2068V32.4432H67.2588V35.2739H71.8528V35.2376Z" fill="white"/>
<path d="M79.4975 33.3142V35.9634H78.7079V33.3142L75.6572 28.3062H76.5186L79.1386 32.5884L81.7586 28.3062H82.5482L79.4975 33.3142Z" fill="white"/>
<path d="M86.1732 35.02L86.4962 34.4031C87.0346 34.9474 88.0036 35.3466 89.0086 35.3466C90.4442 35.3466 91.0543 34.7297 91.0543 34.0039C91.0543 31.899 86.3886 33.2055 86.3886 30.3749C86.3886 29.2499 87.2499 28.27 89.188 28.27C90.0494 28.27 90.9467 28.5241 91.5568 28.9595L91.2697 29.6128C90.6236 29.1773 89.8699 28.9958 89.188 28.9958C87.7883 28.9958 87.1781 29.6128 87.1781 30.3749C87.1781 32.4797 91.8439 31.2095 91.8439 33.9676C91.8439 35.0926 90.9467 36.0361 89.0086 36.0361C87.8601 35.9999 86.7116 35.6007 86.1732 35.02Z" fill="white"/>
<path d="M107.707 33.8949H103.472L102.575 35.9271H101.75L105.231 28.3062H106.021L109.502 35.9271H108.641L107.707 33.8949ZM107.42 33.2416L105.59 29.1408L103.76 33.2416H107.42Z" fill="white"/>
<path d="M115.065 29.032H112.409V28.3062H118.546V29.032H115.891V35.9634H115.101V29.032H115.065Z" fill="white"/>
<path d="M129.206 28.3062H129.996V35.2376H134.267V35.9271H129.206V28.3062Z" fill="white"/>
<path d="M143.67 33.8949H139.435L138.537 35.9271H137.712L141.193 28.3062H141.983L145.464 35.9271H144.603L143.67 33.8949ZM143.347 33.2416L141.516 29.1408L139.686 33.2416H143.347Z" fill="white"/>
<path d="M160 28.3062L157.452 35.9271H156.59L154.329 29.4312L152.104 35.9271H151.279L148.73 28.3062H149.556L151.745 34.8747L154.006 28.3062H154.76L156.985 34.911L159.21 28.3062H160Z" fill="white"/>
</g>
<defs>
<clipPath id="clip0_119_240">
<rect width="160" height="36" fill="white"/>
</clipPath>
</defs>
</svg>
