<svg width="44" height="25" viewBox="0 0 44 25" fill="none" xmlns="http://www.w3.org/2000/svg">
<g clip-path="url(#clip0_119_506)">
<path fill-rule="evenodd" clip-rule="evenodd" d="M43.5801 22.5123L29.767 0.0530988C29.7531 0.0370269 29.7355 0.0240852 29.7157 0.0152007C29.6958 0.00631626 29.6741 0.00170898 29.6522 0.00170898C29.6302 0.00170898 29.6086 0.00631626 29.5887 0.0152007C29.5689 0.0240852 29.5513 0.0370269 29.5374 0.0530988C29.4092 0.170035 16.8292 20.675 16.8292 20.675L13.817 15.8844L13.8496 15.76C13.8496 15.76 19.252 14.2201 19.252 8.63808C19.252 3.05602 13.3754 1.45259 12.0823 1.45259H0L2.03047 4.93635H11.2306C11.2306 4.93635 15.9125 4.60331 15.9125 8.73163C15.9125 12.8599 12.3454 12.931 11.7215 12.931H7.92375L14.8323 23.9427C14.8323 23.9427 15.472 25.0007 16.502 25.0007C17.532 25.0007 17.945 24.4927 18.3678 23.9118C18.7907 23.3309 29.632 6.02526 29.632 6.02526L37.9815 19.2765L29.4713 14.6112L32.6442 19.8331L41.4166 24.6237C41.4166 24.6237 42.8093 25.1654 43.6432 24.4057C44.4771 23.6461 43.5801 22.5123 43.5801 22.5123ZM3.66667 14.7973L0.131093 9.01134V22.9501C0.131093 22.9501 0.117294 24.3187 1.9319 24.3187C3.74651 24.3187 3.70018 22.8874 3.70018 22.8874L3.66667 14.7973Z" fill="#808080"/>
</g>
<defs>
<clipPath id="clip0_119_506">
<rect width="44" height="25" fill="white"/>
</clipPath>
</defs>
</svg>
