<svg width="66" height="125" viewBox="0 0 66 125" fill="none" xmlns="http://www.w3.org/2000/svg">
<path d="M7.31303 123.743C4.96105 122.898 3.21481 121.495 2.09066 120.262C1.52859 119.656 1.11385 119.11 0.841002 118.718C0.568151 118.325 0.431725 118.084 0.431725 118.084C0.431725 118.084 1.53404 117.948 3.15478 118.068C3.96788 118.112 4.90648 118.166 5.92149 118.357C6.42899 118.461 6.95287 118.537 7.49311 118.663C8.03336 118.788 8.58451 118.947 9.14113 119.143C9.41944 119.241 9.69229 119.34 9.95968 119.438C10.2271 119.536 10.489 119.645 10.7455 119.754C11.2585 119.978 11.755 120.224 12.2243 120.475C12.459 120.6 12.6882 120.731 12.9119 120.857C13.1302 120.977 13.3485 121.102 13.5504 121.222C13.9651 121.468 14.3471 121.713 14.6964 121.954C15.4003 122.428 15.9679 122.865 16.3553 123.181C16.7482 123.503 16.9556 123.689 16.9556 123.689C16.9556 123.689 16.8846 123.716 16.7428 123.76C16.6009 123.803 16.399 123.858 16.1316 123.924C15.6077 124.054 14.8492 124.218 13.9433 124.344C13.4904 124.415 12.9938 124.431 12.4699 124.453C11.946 124.469 11.3949 124.464 10.8274 124.431C10.2598 124.409 9.67592 124.311 9.08656 124.196C8.49174 124.093 7.89693 123.94 7.31303 123.743ZM17.0975 108.884C16.7537 109.282 16.4372 109.703 16.1479 110.134C15.8533 110.559 15.575 110.969 15.3239 111.389C14.8164 112.224 14.4017 113.069 14.0634 113.795C13.725 114.51 13.4686 115.138 13.2994 115.591C13.1302 116.038 13.0484 116.306 13.0484 116.306C13.0484 116.306 13.3212 116.267 13.7851 116.169C14.0197 116.12 14.298 116.049 14.6145 115.962C14.931 115.874 15.2803 115.738 15.6514 115.591C16.0279 115.438 16.4263 115.269 16.841 115.067C17.0484 114.963 17.2612 114.865 17.4686 114.739C17.6759 114.614 17.8887 114.483 18.0961 114.341C18.9365 113.773 19.7878 113.113 20.5027 112.229C20.8628 111.798 21.1848 111.351 21.4631 110.909C21.605 110.69 21.7305 110.461 21.8451 110.226C21.9597 109.992 22.0688 109.763 22.167 109.533C22.56 108.617 22.8219 107.754 22.9801 106.99C23.1329 106.21 23.1984 105.555 23.2312 105.091C23.2585 104.627 23.253 104.36 23.253 104.36C23.253 104.36 23.0293 104.447 22.6636 104.627C22.4781 104.72 22.2598 104.835 22.0088 104.977C21.7578 105.113 21.474 105.26 21.1739 105.446C20.5736 105.801 19.9078 106.303 19.1984 106.843C18.8492 107.121 18.4945 107.432 18.1452 107.782L17.8833 108.049L17.6159 108.311C17.4467 108.496 17.2721 108.688 17.0975 108.884ZM21.0811 120.638C20.4645 120.567 19.8751 120.458 19.3185 120.316C18.7619 120.175 18.2271 119.973 17.7359 119.776C16.7482 119.361 15.9133 118.898 15.2312 118.434C14.5436 117.959 14.0252 117.511 13.6705 117.184C13.3158 116.857 13.1302 116.649 13.1302 116.649C13.1302 116.649 13.3922 116.562 13.856 116.447C14.0907 116.387 14.369 116.327 14.6964 116.262C15.0183 116.196 15.384 116.109 15.7823 116.038C16.1807 115.967 16.6173 115.896 17.0811 115.847C17.3158 115.825 17.5559 115.803 17.796 115.776C18.0415 115.749 18.2871 115.722 18.5436 115.705C19.564 115.623 20.6991 115.662 21.856 115.749C22.4399 115.803 23.0129 115.891 23.564 116.005C23.8424 116.065 24.1152 116.12 24.3771 116.175C24.6445 116.235 24.901 116.295 25.1575 116.36C26.1725 116.627 27.1111 116.96 27.9024 117.266C28.6882 117.561 29.3267 117.85 29.7741 118.068C30.2216 118.281 30.4726 118.428 30.4726 118.428C30.4726 118.428 30.2052 118.597 29.725 118.854C29.4849 118.985 29.1902 119.132 28.8519 119.29C28.5081 119.443 28.1152 119.596 27.6786 119.749C26.811 120.049 25.796 120.382 24.6609 120.535C24.0988 120.622 23.5095 120.682 22.9147 120.715C22.7673 120.72 22.6145 120.726 22.4617 120.731C22.3089 120.726 22.1561 120.726 22.0033 120.715C21.6977 120.698 21.3921 120.671 21.0811 120.638ZM27.384 103.973C27.1493 104.458 26.9147 104.911 26.7182 105.391C26.5218 105.866 26.3471 106.346 26.1998 106.816C26.1234 107.05 26.0579 107.29 25.987 107.514C25.916 107.738 25.856 107.962 25.796 108.18C25.6759 108.617 25.5777 109.037 25.4904 109.43C25.3212 110.215 25.2175 110.892 25.152 111.372C25.1248 111.612 25.0975 111.798 25.0866 111.929C25.0756 112.06 25.0702 112.125 25.0702 112.125C25.0702 112.125 25.1357 112.104 25.2557 112.054C25.3758 112.005 25.5449 111.924 25.7578 111.82C26.1834 111.607 26.7782 111.285 27.4549 110.843C27.7987 110.63 28.137 110.346 28.4917 110.052C28.8464 109.757 29.2066 109.424 29.5613 109.069C29.6486 108.982 29.7359 108.889 29.8287 108.797C29.916 108.698 29.9979 108.6 30.0797 108.497C30.2489 108.295 30.4126 108.082 30.5709 107.863C30.8874 107.427 31.1875 106.963 31.4549 106.477C31.9679 105.468 32.2898 104.431 32.4917 103.476C32.6773 102.505 32.7264 101.572 32.7209 100.797C32.71 100.011 32.6445 99.3724 32.5681 98.9085C32.4917 98.4447 32.4262 98.1827 32.4262 98.1827C32.4262 98.1827 32.3771 98.2155 32.2898 98.2864C32.1971 98.3519 32.077 98.461 31.9133 98.5866C31.5859 98.8376 31.1329 99.2141 30.6363 99.7107C29.6104 100.693 28.3662 102.09 27.384 103.973ZM33.8396 114.537C33.2339 114.625 32.6172 114.619 32.0388 114.603C31.4604 114.581 30.9037 114.521 30.3853 114.445C30.1234 114.401 29.8724 114.357 29.6268 114.303C29.3758 114.243 29.1411 114.177 28.9065 114.112C28.4481 113.975 28.0224 113.828 27.6404 113.681C26.871 113.381 26.2707 113.069 25.856 112.835C25.6486 112.72 25.4904 112.617 25.3812 112.546C25.2721 112.475 25.2175 112.436 25.2175 112.436C25.2175 112.436 25.4576 112.3 25.8778 112.071C26.298 111.842 26.9092 111.542 27.6677 111.241C28.0497 111.1 28.4481 110.914 28.8846 110.756C29.3212 110.592 29.7905 110.439 30.2871 110.297C30.4126 110.265 30.5381 110.232 30.6636 110.194C30.7891 110.155 30.9146 110.123 31.0456 110.084C31.3021 110.014 31.564 109.948 31.8369 109.888C32.3771 109.768 32.9447 109.67 33.534 109.604C34.6909 109.446 35.8205 109.413 36.8901 109.462C37.9433 109.501 38.9092 109.588 39.7496 109.713C40.5845 109.833 41.2885 109.992 41.7687 110.095C42.2489 110.205 42.5217 110.286 42.5217 110.286C42.5217 110.286 42.4672 110.341 42.3635 110.445C42.2543 110.543 42.107 110.701 41.8942 110.87C41.474 111.214 40.8573 111.689 40.0934 112.191C39.9024 112.316 39.7005 112.447 39.4876 112.573C39.2694 112.693 39.0456 112.813 38.811 112.933C38.3417 113.173 37.8451 113.408 37.3157 113.626C37.0538 113.735 36.7864 113.844 36.5081 113.937C36.2243 114.024 35.9406 114.106 35.6459 114.183C35.0511 114.341 34.4508 114.461 33.8396 114.537ZM36.3498 96.8676C36.208 97.3751 36.0934 97.8881 36.0115 98.401C35.9679 98.6575 35.9351 98.914 35.9024 99.165C35.8696 99.416 35.8369 99.6561 35.8096 99.9017C35.7059 100.873 35.6786 101.806 35.6895 102.619C35.7005 103.432 35.7277 104.093 35.7659 104.573C35.8041 105.048 35.8478 105.326 35.8478 105.326C35.8478 105.326 36.0825 105.173 36.459 104.884C36.8464 104.6 37.343 104.136 37.8996 103.547C38.1779 103.252 38.4672 102.919 38.7564 102.565C39.0402 102.199 39.3075 101.784 39.5749 101.353C39.8369 100.917 40.0934 100.458 40.3116 99.9726C40.519 99.4706 40.7046 98.9467 40.8519 98.401C40.9938 97.8553 41.1138 97.3314 41.1575 96.7912C41.2066 96.2564 41.223 95.738 41.212 95.2414C41.2011 94.7448 41.1629 94.2755 41.1029 93.8335C41.0483 93.3915 40.9501 92.9658 40.8628 92.5838C40.6773 91.8144 40.4644 91.1977 40.2953 90.7666C40.1261 90.3355 40.0061 90.0954 40.0061 90.0954C40.0061 90.0954 39.8369 90.2701 39.5749 90.592C39.444 90.7557 39.2912 90.9522 39.1275 91.1868C38.9583 91.4215 38.7891 91.6998 38.5818 91.9836C38.3853 92.2782 38.1779 92.6002 37.9815 92.9549C37.8833 93.135 37.7796 93.3205 37.6868 93.5115C37.6377 93.6097 37.5886 93.708 37.5395 93.8062C37.4904 93.9044 37.4358 94.0026 37.3867 94.1009C37.1848 94.5047 36.9938 94.9358 36.8191 95.3997C36.7318 95.6343 36.65 95.8689 36.5736 96.12C36.5026 96.371 36.4208 96.6111 36.3498 96.8676ZM44.9392 105.746C44.3498 105.948 43.7659 106.101 43.2039 106.215C42.9201 106.27 42.6418 106.319 42.3689 106.357C42.0906 106.39 41.8178 106.412 41.5504 106.423C40.4808 106.477 39.5204 106.412 38.7127 106.297C37.9051 106.183 37.2284 105.992 36.7755 105.85C36.3171 105.708 36.0606 105.599 36.0606 105.599C36.0606 105.599 36.2625 105.408 36.6336 105.102C37.0156 104.808 37.5286 104.366 38.1943 103.891C38.5272 103.656 38.8928 103.405 39.2912 103.16C39.6841 102.903 40.0988 102.636 40.5463 102.385C40.9938 102.128 41.4795 101.888 41.987 101.659C42.4835 101.413 43.0019 101.19 43.5586 100.988C44.1097 100.786 44.6773 100.633 45.212 100.48C45.7468 100.333 46.2816 100.207 46.8 100.109C47.3185 100.011 47.826 99.9344 48.3116 99.8799C48.7973 99.8253 49.2339 99.7653 49.6541 99.7325C50.489 99.6616 51.1984 99.6507 51.695 99.6507C52.1916 99.6561 52.4808 99.678 52.4808 99.678C52.4808 99.678 52.3116 99.9453 51.9788 100.376C51.815 100.595 51.6131 100.851 51.3676 101.146C51.122 101.435 50.8546 101.763 50.5217 102.079C50.1943 102.401 49.8287 102.745 49.4303 103.083C49.2339 103.252 49.0265 103.427 48.8082 103.596C48.6991 103.678 48.59 103.765 48.4808 103.853C48.3662 103.934 48.2462 104.011 48.1316 104.093C47.6568 104.409 47.1493 104.72 46.62 104.999C46.3526 105.14 46.0852 105.277 45.8069 105.402C45.5286 105.539 45.2284 105.642 44.9392 105.746ZM43.5586 87.9508C43.5477 88.2182 43.5422 88.4801 43.5477 88.7475C43.5531 89.0149 43.5586 89.2714 43.5695 89.5279C43.5859 90.0409 43.6295 90.5429 43.6895 91.034C43.7496 91.5252 43.826 91.9999 43.9133 92.4529C43.9951 92.9003 44.0715 93.3205 44.1643 93.708C44.3389 94.4883 44.5245 95.1432 44.6718 95.6016C44.8137 96.0599 44.9174 96.3219 44.9174 96.3219C44.9174 96.3219 45.1084 96.12 45.4085 95.7489C45.5558 95.5634 45.7359 95.3287 45.9269 95.0613C46.1179 94.7885 46.3416 94.4883 46.5326 94.1336C46.9255 93.4242 47.3621 92.5838 47.6895 91.6234C47.8423 91.1377 47.9842 90.6248 48.0879 90.1009C48.197 89.5716 48.2844 89.0313 48.2898 88.4583C48.3062 87.8908 48.2844 87.3396 48.2298 86.8103C48.1752 86.2864 48.0934 85.7844 47.9569 85.2933C47.7059 84.3274 47.373 83.4761 47.0347 82.7776C46.9528 82.6029 46.8655 82.4392 46.7837 82.281C46.6964 82.1227 46.6091 81.9754 46.5272 81.8335C46.3635 81.5552 46.2107 81.3205 46.0797 81.1295C45.8178 80.7475 45.6486 80.5402 45.6486 80.5402C45.6486 80.5402 45.5286 80.7476 45.3539 81.1241C45.1902 81.5061 44.9174 82.0299 44.6773 82.6957C44.5517 83.0286 44.4317 83.3942 44.3225 83.7871C44.1916 84.1746 44.0715 84.5838 43.9678 85.0259C43.8642 85.4679 43.7878 85.9426 43.7168 86.4283C43.635 86.9085 43.5804 87.416 43.5586 87.9508ZM53.8614 94.7066C53.5995 94.8758 53.3376 95.0286 53.0756 95.1705C52.9447 95.2414 52.8137 95.3123 52.6827 95.3778C52.5463 95.4379 52.4153 95.4979 52.2789 95.5579C51.7441 95.7871 51.2148 95.9726 50.7073 96.12C50.1998 96.2673 49.7086 96.3819 49.2448 96.4692C48.7755 96.5511 48.3225 96.5947 47.9133 96.622C47.0893 96.6766 46.4071 96.6602 45.9324 96.622C45.4576 96.5893 45.1848 96.5402 45.1848 96.5402C45.1848 96.5402 45.3321 96.3055 45.6268 95.9181C45.7741 95.7271 45.9542 95.4979 46.167 95.2414C46.3744 94.9849 46.6363 94.7121 46.8983 94.3956C47.4276 93.7735 48.1043 93.1022 48.8683 92.4092C49.2448 92.06 49.6541 91.7052 50.0961 91.3669C50.5381 91.0286 51.0183 90.7012 51.4985 90.3737C51.9897 90.0518 52.4863 89.7626 52.9883 89.5006C53.4903 89.2441 53.9978 89.0149 54.4726 88.7967C55.433 88.3655 56.3607 88.0436 57.1738 87.7926C57.3812 87.7325 57.5777 87.678 57.7632 87.6234C57.9487 87.5688 58.1234 87.5197 58.2871 87.4761C58.6145 87.3887 58.9092 87.3178 59.1493 87.2578C59.6295 87.1486 59.9133 87.105 59.9133 87.105C59.9133 87.105 59.8096 87.4051 59.5913 87.9072C59.3839 88.4147 59.0074 89.0968 58.5217 89.8826C58.2762 90.2755 58.0033 90.6902 57.6977 91.1213C57.3703 91.5361 57.0156 91.9617 56.6281 92.3874C56.2352 92.8076 55.826 93.2278 55.3676 93.6207C54.8874 94.0081 54.3853 94.3737 53.8614 94.7066ZM48.6609 77.6643C48.8246 78.7012 49.1193 79.7053 49.4631 80.6384C49.7741 81.5606 50.1397 82.4065 50.489 83.1377C50.8382 83.8635 51.1766 84.4692 51.4003 84.8785C51.635 85.2932 51.7878 85.5224 51.7878 85.5224C51.7878 85.5224 51.9406 85.2878 52.1588 84.8621C52.3607 84.4256 52.6281 83.798 52.8846 83.0231C53.1629 82.2591 53.343 81.3205 53.4631 80.311C53.4903 80.06 53.5176 79.8035 53.534 79.5415C53.5504 79.2796 53.5395 79.0068 53.534 78.7394C53.5122 78.1991 53.4631 77.6425 53.3648 77.0913C53.3157 76.813 53.2666 76.5456 53.1957 76.2837C53.1193 76.0163 53.0374 75.7598 52.9501 75.5033C52.77 75.0013 52.5681 74.5265 52.3498 74.0845C51.9242 73.2059 51.3894 72.4474 50.8983 71.8362C50.4071 71.225 49.9542 70.7612 49.6213 70.4447C49.2884 70.1336 49.0811 69.9699 49.0811 69.9699C49.0811 69.9699 48.7591 70.8812 48.6063 72.2892C48.4917 72.9877 48.4099 73.8062 48.4262 74.723C48.4044 75.6234 48.459 76.6111 48.6609 77.6643ZM60.1861 81.9535C59.2803 82.8267 58.3253 83.5143 57.414 84.0381C56.4699 84.5511 55.5586 84.9003 54.7782 85.1459C53.9924 85.3915 53.3376 85.5279 52.8519 85.5934C52.3717 85.6643 52.0988 85.6752 52.0988 85.6752C52.0988 85.6752 52.2025 85.4133 52.4099 84.9822C52.6009 84.5402 52.8901 83.9181 53.2994 83.2087C53.725 82.5047 54.1779 81.6698 54.7891 80.8294C54.9419 80.6166 55.1002 80.4038 55.2693 80.1909C55.4385 79.9781 55.5968 79.7598 55.7714 79.5415C56.1206 79.105 56.4972 78.6793 56.9174 78.2591C57.1247 78.0463 57.343 77.8499 57.5558 77.648C57.7632 77.4515 57.9706 77.2605 58.1834 77.075C58.609 76.7039 59.0401 76.3656 59.4712 76.0545C60.3444 75.4324 61.152 74.8976 61.8832 74.4665C62.609 74.0409 63.2475 73.7189 63.7004 73.5061C64.1534 73.2933 64.4262 73.1896 64.4262 73.1896C64.4262 73.1896 64.2516 74.4501 63.6841 76.2128C63.3621 77.0859 62.931 78.0736 62.3798 79.0777C61.7796 80.0654 61.0538 81.0641 60.1861 81.9535ZM51.3567 66.4829C51.5586 66.974 51.8041 67.4488 52.0442 67.9017C52.2789 68.3547 52.5299 68.7912 52.7919 69.2059C53.3048 70.0354 53.8887 70.7885 54.3635 71.4106C54.8491 72.0381 55.2966 72.5456 55.6186 72.9003C55.9405 73.2496 56.1479 73.4461 56.1479 73.4461C56.1479 73.4461 56.2352 73.1787 56.3498 72.7148C56.4044 72.4802 56.4699 72.1964 56.5299 71.869C56.5572 71.7053 56.5954 71.5306 56.6172 71.3451C56.639 71.1596 56.6554 70.9631 56.6718 70.7612C56.7045 70.3519 56.7264 69.9154 56.7264 69.4515C56.7264 68.9877 56.7209 68.502 56.6445 67.989C56.579 67.4815 56.4863 66.9631 56.3607 66.4392C56.2953 66.1773 56.2243 65.9154 56.1425 65.6534C56.0606 65.3915 55.9515 65.1296 55.8423 64.8676C55.6131 64.3492 55.3621 63.8635 55.0838 63.4106C54.8055 62.9577 54.5272 62.5429 54.1943 62.1609C53.5558 61.3969 52.8901 60.7748 52.2898 60.2892C51.9897 60.0436 51.7059 59.8362 51.444 59.6562C51.1766 59.4761 50.9365 59.3287 50.7346 59.2141C50.3362 58.9795 50.0906 58.8649 50.0906 58.8649C50.0906 58.8649 50.0688 59.105 50.0743 59.5252C50.0797 59.9454 50.0579 60.5347 50.1234 61.2442C50.1507 61.5989 50.2052 61.9809 50.2707 62.3847C50.3198 62.7885 50.3853 63.2141 50.4835 63.6616C50.5763 64.1036 50.7073 64.5675 50.8546 65.0368C50.9856 65.5115 51.1548 65.9972 51.3567 66.4829ZM63.5367 68.0873C63.1984 68.6166 62.8546 69.1023 62.4726 69.5443C62.0852 69.9863 61.6868 70.3792 61.2884 70.7394C60.4863 71.4542 59.7223 72.0054 58.9856 72.4147C58.2598 72.824 57.6377 73.1023 57.1902 73.2769C56.7427 73.4515 56.4808 73.5279 56.4808 73.5279C56.4808 73.5279 56.519 73.2496 56.6172 72.7748C56.6663 72.5402 56.7318 72.2564 56.8191 71.929C56.8628 71.7653 56.9119 71.5961 56.961 71.416C57.0047 71.236 57.0538 71.045 57.1084 70.8485C57.2175 70.4556 57.3485 70.03 57.5067 69.5825C57.665 69.135 57.8614 68.6766 58.0415 68.1909C58.2325 67.7107 58.4508 67.2141 58.7073 66.7175C58.8328 66.4665 58.9692 66.2155 59.1165 65.9645C59.2639 65.7134 59.3948 65.4624 59.5476 65.2059C59.8532 64.7039 60.1807 64.2237 60.5245 63.7708C60.8628 63.3178 61.2339 62.8922 61.5667 62.4884C62.2489 61.6862 62.9419 60.9877 63.5695 60.4092C63.8805 60.12 64.1807 59.8635 64.4426 59.6398C64.6991 59.416 64.9337 59.2251 65.1247 59.0723C65.5122 58.7612 65.7468 58.603 65.7468 58.603C65.7468 58.603 65.7796 58.9195 65.8014 59.4652C65.8178 60.0109 65.7686 60.7912 65.6759 61.708C65.6213 62.1664 65.5613 62.663 65.4576 63.1814C65.343 63.6998 65.2011 64.2401 65.032 64.7858C64.8573 65.3369 64.6663 65.8935 64.4208 66.4447C64.1643 67.0068 63.8696 67.5525 63.5367 68.0873ZM51.5804 54.9577C51.8751 55.3888 52.2025 55.8035 52.5408 56.1909C52.8792 56.5839 53.2448 56.9495 53.5722 57.2987C54.2489 57.9972 54.9419 58.603 55.5695 59.1105C55.8805 59.3615 56.1807 59.5907 56.4426 59.7871C56.6991 59.9836 56.9337 60.1527 57.1247 60.2837C57.5122 60.5566 57.7523 60.6984 57.7523 60.6984C57.7523 60.6984 57.785 60.4201 57.8069 59.9399C57.8232 59.4597 57.7741 58.7721 57.6813 57.9645C57.6322 57.5607 57.5667 57.1241 57.474 56.6712C57.3594 56.2182 57.223 55.7435 57.0592 55.2633C56.8901 54.783 56.7045 54.2919 56.4699 53.8117C56.2189 53.3315 55.9296 52.8567 55.6077 52.3983C55.2803 51.9399 54.9419 51.5197 54.5708 51.1432C54.1888 50.7667 53.8014 50.4283 53.414 50.1227C52.6336 49.517 51.886 49.0532 51.1602 48.7203C50.4508 48.382 49.8396 48.1582 49.403 48.0218C48.9665 47.8799 48.7045 47.8253 48.7045 47.8253C48.7045 47.8253 48.7318 48.0654 48.8191 48.4747C48.8628 48.6766 48.9174 48.9222 48.9992 49.2005C49.0374 49.3424 49.0811 49.4843 49.1247 49.6425C49.1629 49.8008 49.2066 49.959 49.2557 50.1282C49.3539 50.4665 49.474 50.8322 49.6213 51.2141C49.7687 51.5961 49.9542 51.989 50.1234 52.4038C50.3034 52.8185 50.5163 53.2387 50.7618 53.6698C50.8873 53.8826 51.0183 54.0955 51.1602 54.3137C51.3021 54.5211 51.433 54.7394 51.5804 54.9577ZM63.8096 53.8335C63.5913 54.4229 63.3403 54.9795 63.0674 55.4925C62.7946 56.0054 62.5163 56.4802 62.1888 56.9167C61.5504 57.7899 60.8901 58.4993 60.2898 59.0613C59.9897 59.3396 59.7059 59.5852 59.444 59.7926C59.1766 60 58.9365 60.1691 58.7346 60.3055C58.3307 60.5784 58.0906 60.7094 58.0906 60.7094C58.0906 60.7094 58.0688 60.4311 58.0742 59.9454C58.0797 59.4597 58.0579 58.7776 58.1234 57.959C58.1507 57.5497 58.1998 57.1077 58.2598 56.6384C58.3034 56.1691 58.3689 55.678 58.4562 55.165C58.5435 54.6521 58.6691 54.1227 58.8109 53.577C58.9365 53.0368 59.0947 52.4802 59.2912 51.9236C59.4822 51.3615 59.7223 50.8212 59.9515 50.3028C60.1752 49.7899 60.4153 49.2933 60.6663 48.824C61.1629 47.8854 61.7305 47.045 62.1834 46.3465C62.6527 45.648 63.0893 45.0805 63.4058 44.693C63.7223 44.3056 63.9187 44.0927 63.9187 44.0927C63.9187 44.0927 64.017 44.3929 64.1425 44.9277C64.2079 45.1951 64.2789 45.517 64.3498 45.8881C64.3826 46.0736 64.4262 46.2701 64.4535 46.4829C64.4808 46.6957 64.5026 46.914 64.5245 47.1487C64.5681 47.6125 64.6008 48.1091 64.6118 48.6384C64.6227 49.1678 64.6281 49.7189 64.5627 50.2974C64.5081 50.8704 64.4208 51.4652 64.3062 52.06C64.2461 52.3547 64.1807 52.6548 64.1043 52.9495C64.0279 53.2387 63.9187 53.5388 63.8096 53.8335ZM49.3048 43.6835C49.5013 43.8581 49.7086 44.0272 49.9105 44.191C50.107 44.3547 50.3089 44.5184 50.5108 44.6712C50.9146 44.9768 51.3348 45.2605 51.7496 45.5225C52.5954 46.0409 53.3812 46.4829 54.0906 46.8376C54.8 47.1923 55.4276 47.4597 55.8696 47.6343C56.3171 47.809 56.579 47.8963 56.579 47.8963C56.579 47.8963 56.4371 46.7885 55.9187 45.2442C55.624 44.4856 55.2311 43.618 54.7182 42.7503C54.1725 41.8936 53.4903 41.0368 52.6718 40.2783C51.815 39.5361 50.9092 38.974 50.0361 38.5484C49.1302 38.1391 48.2625 37.8717 47.5095 37.6917C46.7564 37.517 46.1234 37.4297 45.6541 37.397C45.1957 37.3642 44.9228 37.3642 44.9228 37.3642C44.9228 37.3642 45.0101 37.588 45.1902 37.9645C45.3539 38.3465 45.605 38.8813 45.9651 39.487C46.3417 40.0873 46.7455 40.7967 47.3076 41.5116C47.444 41.6916 47.5913 41.8717 47.7496 42.0464C47.9078 42.2264 48.0497 42.412 48.2134 42.5921C48.5463 42.9686 48.9065 43.3288 49.3048 43.6835ZM60.9828 39.8526C60.9446 40.1637 60.9064 40.4638 60.8464 40.764C60.7809 41.0641 60.7045 41.3533 60.6281 41.6371C60.4699 42.2046 60.2789 42.7339 60.077 43.2251C59.6841 44.2073 59.1657 45.0586 58.6909 45.7408C58.2161 46.4229 57.7741 46.9468 57.4467 47.296C57.1193 47.6453 56.9174 47.8308 56.9174 47.8308C56.9174 47.8308 56.5681 46.7667 56.3553 45.135C56.2134 44.3274 56.0988 43.3779 56.0715 42.3356C56.0115 41.2987 56.0224 40.1746 56.1752 38.985C56.2898 37.8117 56.5354 36.693 56.841 35.6562C57.1138 34.6357 57.4412 33.7026 57.7577 32.9058C58.0743 32.1146 58.3908 31.4597 58.5981 31.0123C58.8164 30.5648 58.9583 30.3138 58.9583 30.3138C58.9583 30.3138 59.1275 30.5812 59.373 31.0723C59.6022 31.5689 59.9133 32.2837 60.2134 33.1623C60.5354 34.03 60.77 35.0941 60.9392 36.2292C60.9828 36.5129 61.0156 36.8022 61.0429 37.0968C61.0756 37.3915 61.0756 37.6971 61.0811 38.0027C61.0865 38.6084 61.0538 39.2305 60.9828 39.8526ZM44.6118 33.2005C45.0647 33.4625 45.534 33.6917 46.0033 33.899C46.4726 34.1064 46.9583 34.281 47.4003 34.4502C48.3062 34.7831 49.1957 35.0286 49.976 35.2087C50.3689 35.296 50.7291 35.3724 51.0401 35.4379C51.3567 35.5034 51.6404 35.5525 51.8696 35.5907C52.3335 35.6671 52.6118 35.6889 52.6118 35.6889C52.6118 35.6889 52.5245 35.4215 52.3335 34.985C52.1588 34.5375 51.8205 33.9427 51.3894 33.2551C51.1711 32.9113 50.9256 32.5511 50.6472 32.1801C50.3526 31.8199 50.0251 31.4543 49.6759 31.0941C49.3212 30.7339 48.9447 30.3738 48.519 30.0464C48.0879 29.7244 47.6241 29.4188 47.1384 29.146C46.8928 29.0095 46.6527 28.884 46.4071 28.7694C46.2871 28.7148 46.1616 28.6548 46.0415 28.6057C45.916 28.5566 45.7905 28.5129 45.665 28.4638C45.1629 28.2892 44.6718 28.1528 44.1916 28.0436C43.7114 27.94 43.253 27.8636 42.8164 27.8199C42.3744 27.7762 41.9433 27.7653 41.5558 27.7653C40.7755 27.7653 40.1316 27.8308 39.6786 27.8963C39.2257 27.9618 38.9692 28.0218 38.9692 28.0218C38.9692 28.0218 39.0947 28.2292 39.3457 28.5621C39.4713 28.7258 39.6241 28.9222 39.8096 29.1405C39.9897 29.3642 40.2243 29.5934 40.4481 29.8608C40.9065 30.3902 41.5122 30.9577 42.2052 31.5361C42.5436 31.8308 42.9146 32.12 43.3185 32.3983C43.7223 32.6712 44.1698 32.9331 44.6118 33.2005ZM55.1657 26.8485C55.2202 27.4761 55.2311 28.0873 55.2039 28.6657C55.182 29.2496 55.122 29.8008 55.0183 30.3356C54.8164 31.3997 54.5217 32.3329 54.2216 33.0968C54.1452 33.2878 54.0688 33.4679 53.9924 33.6425C53.9105 33.8172 53.8341 33.9754 53.7577 34.1282C53.605 34.4284 53.4631 34.6903 53.3376 34.8977C53.092 35.3178 52.9283 35.5416 52.9283 35.5416C52.9283 35.5416 52.7918 35.296 52.5899 34.8595C52.3989 34.4174 52.0824 33.8062 51.7932 33.0423C51.6459 32.6603 51.4931 32.2401 51.3567 31.7926C51.1984 31.3506 51.0456 30.8758 50.9092 30.3738C50.7673 29.8717 50.6582 29.3369 50.549 28.7858C50.429 28.2455 50.3362 27.6726 50.2762 27.0832C50.2434 26.7885 50.2216 26.4938 50.2107 26.1992C50.1998 25.9045 50.1889 25.6207 50.1779 25.337C50.1616 24.7749 50.1725 24.2237 50.1998 23.6889C50.2271 23.1541 50.2762 22.6357 50.3362 22.1501C50.3908 21.6644 50.4453 21.2169 50.5108 20.7967C50.6418 19.9563 50.7946 19.2578 50.9146 18.7667C51.0347 18.2756 51.1275 18.0027 51.1275 18.0027C51.1275 18.0027 51.3403 18.2319 51.6841 18.6576C51.8532 18.8704 52.0552 19.1323 52.2789 19.4379C52.4972 19.749 52.7537 20.0873 52.9774 20.4911C53.4412 21.2933 53.9487 22.2428 54.3526 23.3179C54.5436 23.8636 54.7182 24.4311 54.8655 25.0204C54.9965 25.6153 55.122 26.2155 55.1657 26.8485ZM37.7414 24.0109C38.2434 24.1637 38.7673 24.2674 39.2584 24.3711C39.755 24.4747 40.2462 24.5511 40.7318 24.6057C41.2175 24.6603 41.6923 24.6985 42.1452 24.7203C42.5981 24.7421 43.0129 24.764 43.4112 24.7694C44.2025 24.7803 44.8737 24.753 45.3485 24.7203C45.8232 24.6876 46.1015 24.6494 46.1015 24.6494C46.1015 24.6494 45.9542 24.4147 45.665 24.0327C45.5231 23.8417 45.343 23.6125 45.1302 23.3615C44.9174 23.1105 44.6773 22.8213 44.3771 22.5484C44.0824 22.2646 43.7605 21.9754 43.4003 21.6807C43.2202 21.5334 43.0347 21.3861 42.8437 21.2387C42.7455 21.1678 42.6472 21.0914 42.549 21.0204C42.4453 20.955 42.3362 20.884 42.2325 20.8185C41.8014 20.5511 41.343 20.2947 40.8628 20.0655C40.6227 19.9509 40.3771 19.8417 40.1261 19.738C39.8751 19.6344 39.6022 19.558 39.3348 19.4816C38.7946 19.3288 38.2598 19.2251 37.7414 19.1541C37.4849 19.1214 37.2284 19.0941 36.9774 19.0777C36.7209 19.0668 36.4699 19.0668 36.2189 19.0668C35.2312 19.0832 34.3362 19.2087 33.5886 19.3724C32.8355 19.5361 32.2025 19.7599 31.7769 19.9236C31.3458 20.0873 31.1056 20.2074 31.1056 20.2074C31.1056 20.2074 31.2748 20.3765 31.5968 20.6385C31.9242 20.8895 32.3717 21.2769 32.9501 21.6753C33.2393 21.8772 33.5613 22.0846 33.9106 22.2865C34.2543 22.4993 34.62 22.723 35.0238 22.9249C35.4222 23.1323 35.8587 23.3233 36.3116 23.5034C36.7646 23.6889 37.2339 23.8636 37.7414 24.0109ZM46.6636 15.4761C46.8546 16.0764 47.0183 16.6494 47.1056 17.2333C47.1984 17.8172 47.253 18.3792 47.2748 18.914C47.2966 19.4488 47.2912 19.9618 47.2639 20.4365C47.2366 20.9113 47.1657 21.3697 47.1002 21.7844C46.9583 22.6084 46.7782 23.2742 46.6363 23.7326C46.489 24.191 46.3853 24.4475 46.3853 24.4475C46.3853 24.4475 46.1943 24.2455 45.8942 23.869C45.7414 23.6835 45.5668 23.4488 45.3703 23.1814C45.1739 22.914 44.9719 22.5975 44.7318 22.2646C44.4972 21.9318 44.2571 21.5607 44.0115 21.1569C43.8914 20.955 43.7714 20.7421 43.6513 20.5239C43.5913 20.4147 43.5313 20.3001 43.4713 20.191C43.4112 20.0818 43.3457 19.9672 43.2857 19.8581C43.0347 19.4052 42.7946 18.9195 42.5763 18.4065C42.4672 18.1501 42.358 17.8827 42.2598 17.6098C42.1616 17.337 42.047 17.075 41.9542 16.7913C41.7578 16.2346 41.5995 15.6726 41.474 15.1159C41.4085 14.8376 41.3485 14.5593 41.2994 14.2865C41.2448 14.0136 41.1902 13.7572 41.1466 13.4952C40.961 12.4529 40.8683 11.4597 40.8246 10.603C40.7809 9.74624 40.7646 9.04774 40.7755 8.54024C40.7864 8.03819 40.8137 7.74897 40.8137 7.74897C40.8137 7.74897 41.0756 7.9236 41.5067 8.25647C41.9433 8.57844 42.5163 9.10777 43.1548 9.76807C43.4713 10.1009 43.8096 10.472 44.1425 10.8704C44.4699 11.2797 44.7919 11.7381 45.1029 12.2183C45.414 12.6985 45.7195 13.206 45.9869 13.7462C46.2325 14.3029 46.4672 14.8813 46.6636 15.4761ZM29.0593 16.5566C30.0961 16.6385 31.1275 16.5948 32.1097 16.4802C33.0756 16.382 33.9706 16.2346 34.7509 16.06C35.5258 15.8908 36.1916 15.6999 36.6391 15.5689C37.092 15.4379 37.3485 15.3397 37.3485 15.3397C37.3485 15.3397 37.2994 15.2906 37.2066 15.1978C37.1138 15.1105 36.9829 14.9686 36.7973 14.8213C36.4262 14.5211 35.886 14.1064 35.2093 13.6698C33.8451 12.8076 31.8533 11.929 29.6322 11.7872C29.0865 11.7381 28.5245 11.7763 28.0061 11.8254C27.4822 11.8799 26.9801 11.9672 26.5054 12.0709C26.2707 12.1255 26.0415 12.1801 25.8178 12.251C25.5886 12.322 25.3703 12.3984 25.163 12.4748C24.7428 12.633 24.3553 12.7967 24.0061 12.9659C23.3021 13.2988 22.7509 13.6371 22.369 13.8827C22.178 14.0082 22.0306 14.1173 21.9324 14.1937C21.8342 14.2701 21.7796 14.3138 21.7796 14.3138C21.7796 14.3138 21.987 14.4338 22.3471 14.6357C22.7073 14.8322 23.2366 15.0887 23.8915 15.3397C24.2243 15.4543 24.5681 15.6125 24.9501 15.7381C25.3321 15.869 25.7414 15.9891 26.1834 16.0928C26.2926 16.1146 26.4072 16.1419 26.5163 16.1692C26.6254 16.1964 26.74 16.2237 26.8492 16.251C27.0784 16.3056 27.3076 16.3492 27.5477 16.3929C28.0224 16.4748 28.5299 16.5348 29.0593 16.5566ZM35.9133 6.24829C36.5408 7.33969 36.9665 8.44747 37.2557 9.46793C37.5286 10.5102 37.6486 11.4925 37.6977 12.3165C37.7414 13.146 37.725 13.8226 37.6759 14.3083C37.6268 14.794 37.5777 15.0723 37.5777 15.0723C37.5777 15.0723 37.5231 15.0286 37.4194 14.9522C37.3157 14.8758 37.1739 14.7449 36.9829 14.603C36.6009 14.3083 36.077 13.8772 35.4876 13.3042C34.3035 12.1746 32.8191 10.603 31.5968 8.57298C31.3021 8.04911 31.0074 7.56343 30.7619 7.05047C30.5108 6.54297 30.2871 6.03547 30.0906 5.53888C29.9924 5.28785 29.8996 5.04229 29.8123 4.79672C29.7196 4.56207 29.6377 4.32742 29.5559 4.09822C29.3976 3.63983 29.2612 3.20327 29.1411 2.794C28.9065 1.97544 28.7482 1.27149 28.6554 0.774897C28.6118 0.529331 28.5736 0.332878 28.5518 0.20191C28.5299 0.0709413 28.519 0 28.519 0C28.519 0 28.59 0.0272851 28.7264 0.0818553C28.8628 0.136426 29.0538 0.229195 29.2994 0.349249C29.785 0.594815 30.4672 0.960436 31.2421 1.45157C31.635 1.69168 32.0279 2.00273 32.4372 2.33015C32.8464 2.66303 33.2666 3.02319 33.6814 3.4161C33.785 3.51432 33.8887 3.61801 33.9924 3.71623C34.0906 3.82537 34.1889 3.93451 34.2871 4.04365C34.4835 4.26739 34.6745 4.49659 34.8655 4.73124C35.2312 5.21691 35.5859 5.71896 35.9133 6.24829ZM22.7564 1.90996C23.2966 2.22646 23.7932 2.5648 24.2462 2.91951C24.4754 3.09413 24.6936 3.27967 24.8956 3.47612C25.1029 3.66712 25.2994 3.86357 25.4849 4.05457C26.2271 4.82946 26.811 5.5989 27.253 6.2974C27.695 7.01227 27.9951 7.63437 28.1916 8.07639C28.3881 8.51841 28.4754 8.7858 28.4754 8.7858C28.4754 8.7858 28.1971 8.76398 27.7278 8.67666C27.4931 8.63846 27.2093 8.57844 26.8874 8.5075C26.5654 8.44201 26.1998 8.37653 25.8014 8.2783C25.0102 8.09822 24.1043 7.79263 23.1329 7.46521C22.6473 7.29058 22.1507 7.08867 21.6432 6.85402C21.5177 6.79399 21.3921 6.73396 21.2666 6.66848C21.1411 6.60845 21.0102 6.54843 20.8846 6.4884C20.6282 6.36289 20.3717 6.23192 20.1152 6.09004C19.6022 5.80081 19.1111 5.48976 18.6473 5.16234C18.1834 4.83492 17.7414 4.52933 17.3267 4.19645C16.4972 3.54706 15.7714 2.85402 15.1657 2.25921C14.5654 1.67531 14.0852 1.15143 13.7632 0.76944C13.4358 0.392906 13.2666 0.158254 13.2666 0.158254C13.2666 0.158254 13.5777 0.10914 14.1179 0.0709413C14.3908 0.0491132 14.7182 0.0327421 15.0893 0.0218281C15.4658 0.0163711 15.886 0.0436562 16.3444 0.0709413C16.8028 0.103683 17.2939 0.152797 17.8123 0.229195C18.0688 0.267394 18.3362 0.305593 18.6036 0.36562C18.871 0.425648 19.1439 0.496589 19.4222 0.56753C20.5299 0.862209 21.6814 1.25512 22.7564 1.90996ZM5.99789 111.389C4.31167 112.622 2.94196 114.237 1.95969 115.481C1.47402 116.115 1.08657 116.682 0.824635 117.086C0.562698 117.49 0.42627 117.741 0.42627 117.741C0.42627 117.741 1.52859 117.823 3.1275 117.621C3.92422 117.506 4.841 117.266 5.78506 116.939C6.25982 116.786 6.73459 116.546 7.20935 116.295C7.67865 116.038 8.14795 115.749 8.59543 115.421C8.81917 115.263 9.03199 115.083 9.2339 114.892C9.43581 114.707 9.63227 114.516 9.81235 114.325C10.178 113.943 10.5108 113.55 10.8055 113.157C10.9529 112.96 11.0893 112.769 11.2203 112.573C11.3512 112.371 11.4658 112.169 11.5804 111.973C11.8042 111.58 11.9952 111.198 12.1534 110.843C12.4754 110.128 12.6882 109.512 12.8192 109.075C12.9501 108.638 12.9992 108.366 12.9992 108.366C12.9992 108.366 12.9392 108.376 12.8301 108.398C12.7209 108.415 12.5627 108.442 12.3608 108.486C11.957 108.573 11.3949 108.715 10.7346 108.955C10.4072 109.086 10.0415 109.184 9.67047 109.342C9.29393 109.49 8.90102 109.664 8.50266 109.872C8.1043 110.09 7.68411 110.286 7.26392 110.537C6.84373 110.783 6.41808 111.067 5.99789 111.389Z" fill="#FF5A26"/>
</svg>
