<svg width="24" height="24" viewBox="0 0 24 24" fill="none" xmlns="http://www.w3.org/2000/svg">
<path d="M10 5C10 5.55228 9.55228 6 9 6C8.44772 6 8 5.55228 8 5C8 4.44772 8.44772 4 9 4C9.55228 4 10 4.44772 10 5Z" fill="#FF5A26"/>
<path d="M9 10C9.55228 10 10 9.55228 10 9C10 8.44772 9.55228 8 9 8C8.44772 8 8 8.44772 8 9C8 9.55228 8.44772 10 9 10Z" fill="#FF5A26"/>
<path d="M10 13C10 13.5523 9.55228 14 9 14C8.44772 14 8 13.5523 8 13C8 12.4477 8.44772 12 9 12C9.55228 12 10 12.4477 10 13Z" fill="#FF5A26"/>
<path d="M13 6C13.5523 6 14 5.55228 14 5C14 4.44772 13.5523 4 13 4C12.4477 4 12 4.44772 12 5C12 5.55228 12.4477 6 13 6Z" fill="#FF5A26"/>
<path d="M14 13C14 13.5523 13.5523 14 13 14C12.4477 14 12 13.5523 12 13C12 12.4477 12.4477 12 13 12C13.5523 12 14 12.4477 14 13Z" fill="#FF5A26"/>
<path d="M13 18C13.5523 18 14 17.5523 14 17C14 16.4477 13.5523 16 13 16C12.4477 16 12 16.4477 12 17C12 17.5523 12.4477 18 13 18Z" fill="#FF5A26"/>
<path fill-rule="evenodd" clip-rule="evenodd" d="M4 3C4 1.34315 5.34315 0 7 0H15C16.6569 0 18 1.34315 18 3V8H19C20.6569 8 22 9.34315 22 11V21C22 21.5523 21.5523 22 21 22H1C0.447715 22 0 21.5523 0 21V11C0 9.34315 1.34315 8 3 8H4V3ZM4 10H3C2.44772 10 2 10.4477 2 11V20H4V10ZM6 20H16V3C16 2.44772 15.5523 2 15 2H7C6.44772 2 6 2.44772 6 3V20ZM20 20V11C20 10.4477 19.5523 10 19 10H18V20H20Z" fill="#FF5A26"/>
</svg>
