<svg width="24" height="24" viewBox="0 0 24 24" fill="none" xmlns="http://www.w3.org/2000/svg">
<path fill-rule="evenodd" clip-rule="evenodd" d="M1.07007 2.63226C1.22097 2.25068 1.58966 2 2 2H22C22.3543 2 22.6822 2.18749 22.8619 2.49287C23.0416 2.79825 23.0462 3.17591 22.8742 3.48564L12.8742 21.4856C12.6697 21.8536 12.2568 22.0541 11.8412 21.9873C11.4257 21.9205 11.0964 21.6006 11.0177 21.1871L9.07857 11.0069L1.31606 3.72954C1.0167 3.44889 0.919172 3.01385 1.07007 2.63226ZM11.1104 10.9852L12.466 18.1021L19.2439 5.90179L11.1104 10.9852ZM18.5132 4H4.52878L10.1225 9.24416L18.5132 4Z" fill="#FF5A26"/>
</svg>
